<?xml version="1.0" standalone="yes"?>

<svg version="1.1" viewBox="0.0 0.0 504.5590551181102 325.9527559055118" fill="none" stroke="none" stroke-linecap="square" stroke-miterlimit="10" xmlns="http://www.w3.org/2000/svg" xmlns:xlink="http://www.w3.org/1999/xlink"><clipPath id="p.0"><path d="m0 0l504.55905 0l0 325.95276l-504.55905 0l0 -325.95276z" clip-rule="nonzero"></path></clipPath><g clip-path="url(#p.0)"><path fill="#000000" fill-opacity="0.0" d="m0 0l504.55905 0l0 325.95276l-504.55905 0z" fill-rule="evenodd"></path><path fill="#b6d7a8" d="m16.838583 59.75686l0 0c0 -26.304356 21.323893 -47.62825 47.62825 -47.62825l221.78287 0c12.631805 0 24.746246 5.0179615 33.678253 13.949991c8.932037 8.932028 13.950012 21.046461 13.950012 33.67826l0 190.5073c0 26.304337 -21.323914 47.62825 -47.628265 47.62825l-221.78287 0c-26.30436 0 -47.62825 -21.323914 -47.62825 -47.62825z" fill-rule="evenodd"></path><path stroke="#000000" stroke-width="1.0" stroke-linejoin="round" stroke-linecap="butt" d="m16.838583 59.75686l0 0c0 -26.304356 21.323893 -47.62825 47.62825 -47.62825l221.78287 0c12.631805 0 24.746246 5.0179615 33.678253 13.949991c8.932037 8.932028 13.950012 21.046461 13.950012 33.67826l0 190.5073c0 26.304337 -21.323914 47.62825 -47.628265 47.62825l-221.78287 0c-26.30436 0 -47.62825 -21.323914 -47.62825 -47.62825z" fill-rule="evenodd"></path><path fill="#000000" d="m41.25717 161.9305l0 -13.59375l5.125 0q1.359375 0 2.078125 0.125q1.0 0.171875 1.671875 0.640625q0.671875 0.46875 1.078125 1.3125q0.421875 0.84375 0.421875 1.84375q0 1.734375 -1.109375 2.9375q-1.09375 1.203125 -3.984375 1.203125l-3.484375 0l0 5.53125l-1.796875 0zm1.796875 -7.140625l3.515625 0q1.75 0 2.46875 -0.640625q0.734375 -0.65625 0.734375 -1.828125q0 -0.859375 -0.4375 -1.46875q-0.421875 -0.609375 -1.125 -0.796875q-0.453125 -0.125 -1.671875 -0.125l-3.484375 0l0 4.859375zm10.099823 0.515625q0 -3.390625 1.8125 -5.296875q1.828125 -1.921875 4.703125 -1.921875q1.875 0 3.390625 0.90625q1.515625 0.890625 2.296875 2.5q0.796875 1.609375 0.796875 3.65625q0 2.0625 -0.84375 3.703125q-0.828125 1.625 -2.359375 2.46875q-1.53125 0.84375 -3.296875 0.84375q-1.921875 0 -3.4375 -0.921875q-1.5 -0.9375 -2.28125 -2.53125q-0.78125 -1.609375 -0.78125 -3.40625zm1.859375 0.03125q0 2.453125 1.3125 3.875q1.328125 1.40625 3.3125 1.40625q2.03125 0 3.34375 -1.421875q1.3125 -1.4375 1.3125 -4.0625q0 -1.65625 -0.5625 -2.890625q-0.546875 -1.234375 -1.640625 -1.921875q-1.078125 -0.6875 -2.421875 -0.6875q-1.90625 0 -3.28125 1.3125q-1.375 1.3125 -1.375 4.390625zm13.198929 6.59375l0 -13.59375l4.6875 0q1.578125 0 2.421875 0.1875q1.15625 0.265625 1.984375 0.96875q1.078125 0.921875 1.609375 2.34375q0.53125 1.40625 0.53125 3.21875q0 1.546875 -0.359375 2.75q-0.359375 1.1875 -0.921875 1.984375q-0.5625 0.78125 -1.234375 1.234375q-0.671875 0.4375 -1.625 0.671875q-0.953125 0.234375 -2.1875 0.234375l-4.90625 0zm1.796875 -1.609375l2.90625 0q1.34375 0 2.109375 -0.25q0.765625 -0.25 1.21875 -0.703125q0.640625 -0.640625 1.0 -1.71875q0.359375 -1.078125 0.359375 -2.625q0 -2.125 -0.703125 -3.265625q-0.703125 -1.15625 -1.703125 -1.546875q-0.71875 -0.28125 -2.328125 -0.28125l-2.859375 0l0 10.390625z" fill-rule="nonzero"></path><path fill="#d0e0e3" d="m31.171917 118.17585l137.29134 0l0 73.66929l-137.29134 0z" fill-rule="evenodd"></path><path stroke="#000000" stroke-width="1.0" stroke-linejoin="round" stroke-linecap="butt" d="m31.171917 118.17585l137.29134 0l0 73.66929l-137.29134 0z" fill-rule="evenodd"></path><path fill="#000000" d="m81.12097 161.9305l5.234375 -13.59375l1.9375 0l5.5625 13.59375l-2.046875 0l-1.59375 -4.125l-5.6875 0l-1.484375 4.125l-1.921875 0zm3.921875 -5.578125l4.609375 0l-1.40625 -3.78125q-0.65625 -1.703125 -0.96875 -2.8125q-0.265625 1.3125 -0.734375 2.59375l-1.5 4.0zm10.021698 5.578125l0 -13.59375l5.125 0q1.359375 0 2.078125 0.125q1.0 0.171875 1.671875 0.640625q0.671875 0.46875 1.078125 1.3125q0.421875 0.84375 0.421875 1.84375q0 1.734375 -1.109375 2.9375q-1.09375 1.203125 -3.984375 1.203125l-3.484375 0l0 5.53125l-1.796875 0zm1.796875 -7.140625l3.515625 0q1.75 0 2.46875 -0.640625q0.734375 -0.65625 0.734375 -1.828125q0 -0.859375 -0.4375 -1.46875q-0.421875 -0.609375 -1.125 -0.796875q-0.453125 -0.125 -1.671875 -0.125l-3.484375 0l0 4.859375zm10.646698 7.140625l0 -13.59375l5.125 0q1.359375 0 2.078125 0.125q1.0 0.171875 1.671875 0.640625q0.671875 0.46875 1.078125 1.3125q0.421875 0.84375 0.421875 1.84375q0 1.734375 -1.109375 2.9375q-1.09375 1.203125 -3.984375 1.203125l-3.484375 0l0 5.53125l-1.796875 0zm1.796875 -7.140625l3.515625 0q1.75 0 2.46875 -0.640625q0.734375 -0.65625 0.734375 -1.828125q0 -0.859375 -0.4375 -1.46875q-0.421875 -0.609375 -1.125 -0.796875q-0.453125 -0.125 -1.671875 -0.125l-3.484375 0l0 4.859375z" fill-rule="nonzero"></path><path fill="#d0e0e3" d="m180.00919 118.17585l137.29135 0l0 73.66929l-137.29135 0z" fill-rule="evenodd"></path><path stroke="#000000" stroke-width="1.0" stroke-linejoin="round" stroke-linecap="butt" d="m180.00919 118.17585l137.29135 0l0 73.66929l-137.29135 0z" fill-rule="evenodd"></path><path fill="#000000" d="m208.0478 157.5555l1.6875 -0.140625q0.125 1.015625 0.5625 1.671875q0.4375 0.65625 1.359375 1.0625q0.9375 0.40625 2.09375 0.40625q1.03125 0 1.8125 -0.3125q0.796875 -0.3125 1.1875 -0.84375q0.390625 -0.53125 0.390625 -1.15625q0 -0.640625 -0.375 -1.109375q-0.375 -0.484375 -1.234375 -0.8125q-0.546875 -0.21875 -2.421875 -0.65625q-1.875 -0.453125 -2.625 -0.859375q-0.96875 -0.515625 -1.453125 -1.265625q-0.46875 -0.75 -0.46875 -1.6875q0 -1.03125 0.578125 -1.921875q0.59375 -0.90625 1.703125 -1.359375q1.125 -0.46875 2.5 -0.46875q1.515625 0 2.671875 0.484375q1.15625 0.484375 1.765625 1.4375q0.625 0.9375 0.671875 2.140625l-1.71875 0.125q-0.140625 -1.28125 -0.953125 -1.9375q-0.796875 -0.671875 -2.359375 -0.671875q-1.625 0 -2.375 0.609375q-0.75 0.59375 -0.75 1.4375q0 0.734375 0.53125 1.203125q0.515625 0.46875 2.703125 0.96875q2.203125 0.5 3.015625 0.875q1.1875 0.546875 1.75 1.390625q0.578125 0.828125 0.578125 1.921875q0 1.09375 -0.625 2.0625q-0.625 0.953125 -1.796875 1.484375q-1.15625 0.53125 -2.609375 0.53125q-1.84375 0 -3.09375 -0.53125q-1.25 -0.546875 -1.96875 -1.625q-0.703125 -1.078125 -0.734375 -2.453125zm13.349823 4.375l0 -13.59375l1.8125 0l0 13.59375l-1.8125 0zm4.886429 0l0 -13.59375l4.6875 0q1.578125 0 2.421875 0.1875q1.15625 0.265625 1.984375 0.96875q1.078125 0.921875 1.609375 2.34375q0.53125 1.40625 0.53125 3.21875q0 1.546875 -0.359375 2.75q-0.359375 1.1875 -0.921875 1.984375q-0.5625 0.78125 -1.234375 1.234375q-0.671875 0.4375 -1.625 0.671875q-0.953125 0.234375 -2.1875 0.234375l-4.90625 0zm1.796875 -1.609375l2.90625 0q1.34375 0 2.109375 -0.25q0.765625 -0.25 1.21875 -0.703125q0.640625 -0.640625 1.0 -1.71875q0.359375 -1.078125 0.359375 -2.625q0 -2.125 -0.703125 -3.265625q-0.703125 -1.15625 -1.703125 -1.546875q-0.71875 -0.28125 -2.328125 -0.28125l-2.859375 0l0 10.390625zm11.707321 1.609375l0 -13.59375l9.84375 0l0 1.59375l-8.046875 0l0 4.171875l7.53125 0l0 1.59375l-7.53125 0l0 4.625l8.359375 0l0 1.609375l-10.15625 0zm22.115433 -4.765625l1.796875 0.453125q-0.5625 2.21875 -2.03125 3.390625q-1.46875 1.15625 -3.59375 1.15625q-2.2031097 0 -3.5781097 -0.890625q-1.375 -0.90625 -2.09375 -2.59375q-0.71875 -1.703125 -0.71875 -3.65625q0 -2.125 0.796875 -3.703125q0.8125 -1.578125 2.3125 -2.390625q1.4999847 -0.828125 3.2968597 -0.828125q2.046875 0 3.4375 1.046875q1.390625 1.03125 1.9375 2.90625l-1.765625 0.421875q-0.46875 -1.484375 -1.375 -2.15625q-0.90625 -0.6875 -2.265625 -0.6875q-1.5625 0 -2.6249847 0.75q-1.046875 0.75 -1.484375 2.03125q-0.421875 1.265625 -0.421875 2.609375q0 1.734375 0.5 3.03125q0.515625 1.28125 1.578125 1.921875q1.0781097 0.640625 2.3124847 0.640625q1.515625 0 2.5625 -0.859375q1.046875 -0.875 1.421875 -2.59375zm2.2698364 4.765625l5.234375 -13.59375l1.9375 0l5.5625 13.59375l-2.046875 0l-1.59375 -4.125l-5.6875 0l-1.484375 4.125l-1.921875 0zm3.921875 -5.578125l4.609375 0l-1.40625 -3.78125q-0.65625 -1.703125 -0.96875 -2.8125q-0.265625 1.3125 -0.734375 2.59375l-1.5 4.0zm10.052948 5.578125l0 -13.59375l6.03125 0q1.8125 0 2.75 0.359375q0.953125 0.359375 1.515625 1.296875q0.5625 0.921875 0.5625 2.046875q0 1.453125 -0.9375 2.453125q-0.921875 0.984375 -2.890625 1.25q0.71875 0.34375 1.09375 0.671875q0.78125 0.734375 1.484375 1.8125l2.375 3.703125l-2.265625 0l-1.796875 -2.828125q-0.796875 -1.21875 -1.3125 -1.875q-0.5 -0.65625 -0.90625 -0.90625q-0.40625 -0.265625 -0.8125 -0.359375q-0.3125 -0.078125 -1.015625 -0.078125l-2.078125 0l0 6.046875l-1.796875 0zm1.796875 -7.59375l3.859375 0q1.234375 0 1.921875 -0.25q0.703125 -0.265625 1.0625 -0.828125q0.375 -0.5625 0.375 -1.21875q0 -0.96875 -0.703125 -1.578125q-0.703125 -0.625 -2.21875 -0.625l-4.296875 0l0 4.5z" fill-rule="nonzero"></path><path fill="#000000" fill-opacity="0.0" d="m128.47638 36.687664l93.76378 0l0 53.574802l-93.76378 0z" fill-rule="evenodd"></path><path fill="#000000" d="m139.94513 76.40767l0 -22.906254l8.640625 0q2.28125 0 3.484375 0.21875q1.6875 0.28125 2.828125 1.078125q1.140625 0.78125 1.828125 2.203125q0.703125 1.421875 0.703125 3.125q0 2.921875 -1.859375 4.953129q-1.859375 2.015625 -6.71875 2.015625l-5.875 0l0 9.3125l-3.03125 0zm3.03125 -12.015625l5.921875 0q2.9375 0 4.171875 -1.0937538q1.234375 -1.09375 1.234375 -3.078125q0 -1.4375 -0.734375 -2.453125q-0.71875 -1.03125 -1.90625 -1.359375q-0.765625 -0.203125 -2.828125 -0.203125l-5.859375 0l0 8.187504zm17.390625 0.859375q0 -5.703129 3.0625 -8.921879q3.0625 -3.234375 7.90625 -3.234375q3.171875 0 5.71875 1.515625q2.546875 1.515625 3.875 4.234375q1.34375 2.703125 1.34375 6.140629q0 3.484375 -1.40625 6.234375q-1.40625 2.75 -3.984375 4.171875q-2.578125 1.40625 -5.5625 1.40625q-3.234375 0 -5.78125 -1.5625q-2.546875 -1.5625 -3.859375 -4.265625q-1.3125 -2.703125 -1.3125 -5.71875zm3.125 0.046875q0 4.140625 2.21875 6.53125q2.234375 2.375 5.59375 2.375q3.421875 0 5.625 -2.40625q2.21875 -2.40625 2.21875 -6.828125q0 -2.7968788 -0.953125 -4.875004q-0.9375 -2.09375 -2.765625 -3.234375q-1.8125 -1.15625 -4.078125 -1.15625q-3.21875 0 -5.546875 2.21875q-2.3125 2.203125 -2.3125 7.375004zm22.6875 11.109375l0 -22.906254l7.890625 0q2.671875 0 4.078125 0.328125q1.96875 0.453125 3.359375 1.640625q1.8125 1.53125 2.703125 3.921875q0.90625 2.375 0.90625 5.437504q0 2.609375 -0.609375 4.625q-0.609375 2.015625 -1.5625 3.34375q-0.953125 1.3125 -2.09375 2.078125q-1.125 0.75 -2.734375 1.140625q-1.59375 0.390625 -3.671875 0.390625l-8.265625 0zm3.03125 -2.703125l4.890625 0q2.265625 0 3.546875 -0.421875q1.296875 -0.421875 2.0625 -1.1875q1.078125 -1.078125 1.671875 -2.890625q0.609375 -1.828125 0.609375 -4.421875q0 -3.5937538 -1.1875 -5.515629q-1.171875 -1.9375 -2.859375 -2.59375q-1.21875 -0.46875 -3.921875 -0.46875l-4.8125 0l0 17.500004z" fill-rule="nonzero"></path><path fill="#000000" fill-opacity="0.0" d="m99.81759 191.84514l75.52755 69.41734" fill-rule="evenodd"></path><path stroke="#000000" stroke-width="1.0" stroke-linejoin="round" stroke-linecap="butt" stroke-dasharray="4.0,3.0" d="m99.81759 191.84514l75.52755 69.41734" fill-rule="evenodd"></path><path fill="#000000" fill-opacity="0.0" d="m175.35826 261.25198l73.29135 -69.41734" fill-rule="evenodd"></path><path stroke="#000000" stroke-width="1.0" stroke-linejoin="round" stroke-linecap="butt" stroke-dasharray="4.0,3.0" d="m175.35826 261.25198l73.29135 -69.41734" fill-rule="evenodd"></path><path fill="#000000" fill-opacity="0.0" d="m317.30054 155.0105l77.95276 0" fill-rule="evenodd"></path><path stroke="#000000" stroke-width="1.0" stroke-linejoin="round" stroke-linecap="butt" d="m317.30054 155.0105l74.525665 0" fill-rule="evenodd"></path><path fill="#000000" stroke="#000000" stroke-width="1.0" stroke-linecap="butt" d="m391.8262 155.0105l-1.1246033 1.124588l3.0897827 -1.124588l-3.0897827 -1.124588z" fill-rule="evenodd"></path><path fill="#b7b7b7" d="m33.40551 218.82677l283.90552 0l0 42.425217l-283.90552 0z" fill-rule="evenodd"></path><path stroke="#000000" stroke-width="1.0" stroke-linejoin="round" stroke-linecap="butt" d="m33.40551 218.82677l283.90552 0l0 42.425217l-283.90552 0z" fill-rule="evenodd"></path><path fill="#000000" d="m141.32362 246.95937l-5.28125 -13.59375l1.953125 0l3.53125 9.875q0.4375 1.1875 0.71875 2.21875q0.3125 -1.109375 0.734375 -2.21875l3.671875 -9.875l1.84375 0l-5.328125 13.59375l-1.84375 0zm8.006073 -6.625q0 -3.390625 1.8125 -5.296875q1.828125 -1.921875 4.703125 -1.921875q1.875 0 3.390625 0.90625q1.515625 0.890625 2.2968903 2.5q0.796875 1.609375 0.796875 3.65625q0 2.0625 -0.84375 3.703125q-0.82814026 1.625 -2.3593903 2.46875q-1.53125 0.84375 -3.296875 0.84375q-1.921875 0 -3.4375 -0.921875q-1.5 -0.9375 -2.28125 -2.53125q-0.78125 -1.609375 -0.78125 -3.40625zm1.859375 0.03125q0 2.453125 1.3125 3.875q1.328125 1.40625 3.3125 1.40625q2.03125 0 3.34375 -1.421875q1.3125 -1.4375 1.3125 -4.0625q0 -1.65625 -0.5625 -2.890625q-0.546875 -1.234375 -1.640625 -1.921875q-1.078125 -0.6875 -2.421875 -0.6875q-1.90625 0 -3.28125 1.3125q-1.375 1.3125 -1.375 4.390625zm13.120804 6.59375l0 -13.59375l1.796875 0l0 11.984375l6.703125 0l0 1.609375l-8.5 0zm19.375732 -13.59375l1.796875 0l0 7.84375q0 2.0625 -0.46875 3.265625q-0.453125 1.203125 -1.671875 1.96875q-1.203125 0.75 -3.171875 0.75q-1.90625 0 -3.125 -0.65625q-1.21875 -0.65625 -1.734375 -1.90625q-0.515625 -1.25 -0.515625 -3.421875l0 -7.84375l1.796875 0l0 7.84375q0 1.765625 0.328125 2.609375q0.328125 0.84375 1.125 1.296875q0.8125 0.453125 1.96875 0.453125q1.984375 0 2.828125 -0.890625q0.84375 -0.90625 0.84375 -3.46875l0 -7.84375zm4.488556 13.59375l0 -13.59375l2.71875 0l3.21875 9.625q0.4375 1.34375 0.640625 2.015625q0.234375 -0.75 0.734375 -2.1875l3.25 -9.453125l2.421875 0l0 13.59375l-1.734375 0l0 -11.390625l-3.953125 11.390625l-1.625 0l-3.9375 -11.578125l0 11.578125l-1.734375 0zm15.634552 0l0 -13.59375l9.84375 0l0 1.59375l-8.046875 0l0 4.171875l7.53125 0l0 1.59375l-7.53125 0l0 4.625l8.359375 0l0 1.609375l-10.15625 0z" fill-rule="nonzero"></path><path fill="#d0e0e3" d="m403.43677 145.1111l0 0c-0.7559509 -4.7716064 1.7260132 -9.495209 6.3926697 -12.166412c4.666687 -2.6712036 10.6996765 -2.821518 15.53891 -0.3871765l0 0c1.7142029 -2.774414 4.851715 -4.6899567 8.463501 -5.1672134c3.6117554 -0.47725677 7.2735596 0.53983307 9.877777 2.7436142l0 0c1.4602966 -2.5154648 4.327606 -4.2055283 7.584442 -4.470482c3.256836 -0.2649536 6.442322 0.93270874 8.426025 3.1679916l0 0c2.638214 -2.6663818 6.8356934 -3.7890396 10.776154 -2.882187c3.9404602 0.9068451 6.916168 3.680313 7.639496 7.1203156l0 0c3.2322693 0.7572632 5.9246826 2.6823273 7.3816223 5.277817c1.4569092 2.5954895 1.5354309 5.6067963 0.21524048 8.25589l0 0c3.1828308 3.5580292 3.9273987 8.299042 1.95578 12.453796c-1.9715881 4.1547546 -6.3631287 7.099045 -11.535767 7.7341003c-0.03643799 3.8993835 -2.5262756 7.477417 -6.509796 9.354965c-3.9835205 1.8775482 -8.838684 1.7614136 -12.694092 -0.30361938c-1.6422119 4.6701965 -6.2644653 8.106476 -11.8697815 8.824249c-5.605316 0.71777344 -11.188843 -1.4116516 -14.338257 -5.4682617c-3.8605652 1.999527 -8.492889 2.5755157 -12.852051 1.5980682c-4.3591614 -0.97746277 -8.077972 -3.4260254 -10.317505 -6.7933655l0 0c-3.9449768 0.39649963 -7.759247 -1.359024 -9.549774 -4.395355c-1.7905273 -3.036316 -1.176178 -6.707062 1.5381775 -9.19046l0 0c-3.519043 -1.7789764 -5.3146667 -5.309067 -4.450531 -8.749466c0.86413574 -3.4403992 4.19223 -6.01149 8.248779 -6.3725586z" fill-rule="evenodd"></path><path fill="#000000" fill-opacity="0.0" d="m399.56055 160.41704l0 0c1.6606445 0.83950806 3.579071 1.2203217 5.497711 1.0913239m2.5130005 12.4947815c0.82510376 -0.08293152 1.6338501 -0.25854492 2.4053955 -0.52230835m20.763 5.717407c-0.58029175 -0.74746704 -1.0661621 -1.5462036 -1.4493103 -2.3825989m27.658356 -0.97354126l0 0c0.29940796 -0.8514404 0.4933777 -1.727768 0.57873535 -2.614334m18.62445 -6.436676c0.03881836 -4.1515045 -2.706482 -7.952652 -7.0567017 -9.770767m16.636597 -10.416702c-0.7045288 1.4136658 -1.7800293 2.6677094 -3.1421814 3.663803m-4.45401 -17.197876l0 0c0.120025635 0.5708771 0.17556763 1.1503143 0.16586304 1.7303162m-18.581207 -5.968277l0 0c-0.6581116 0.6651306 -1.2003174 1.4084167 -1.6097107 2.2066803m-14.400909 -0.90448l0 0c-0.350708 0.60414124 -0.61260986 1.2434082 -0.77963257 1.9031067m-17.56192 0.52053833l0 0c1.0239868 0.5151062 1.9713135 1.135086 2.821167 1.8463287m-24.752472 10.707336l0 0c0.10418701 0.6576538 0.26882935 1.30719 0.4923401 1.9425507" fill-rule="evenodd"></path><path stroke="#000000" stroke-width="1.0" stroke-linejoin="round" stroke-linecap="butt" d="m403.43677 145.1111l0 0c-0.7559509 -4.7716064 1.7260132 -9.495209 6.3926697 -12.166412c4.666687 -2.6712036 10.6996765 -2.821518 15.53891 -0.3871765l0 0c1.7142029 -2.774414 4.851715 -4.6899567 8.463501 -5.1672134c3.6117554 -0.47725677 7.2735596 0.53983307 9.877777 2.7436142l0 0c1.4602966 -2.5154648 4.327606 -4.2055283 7.584442 -4.470482c3.256836 -0.2649536 6.442322 0.93270874 8.426025 3.1679916l0 0c2.638214 -2.6663818 6.8356934 -3.7890396 10.776154 -2.882187c3.9404602 0.9068451 6.916168 3.680313 7.639496 7.1203156l0 0c3.2322693 0.7572632 5.9246826 2.6823273 7.3816223 5.277817c1.4569092 2.5954895 1.5354309 5.6067963 0.21524048 8.25589l0 0c3.1828308 3.5580292 3.9273987 8.299042 1.95578 12.453796c-1.9715881 4.1547546 -6.3631287 7.099045 -11.535767 7.7341003c-0.03643799 3.8993835 -2.5262756 7.477417 -6.509796 9.354965c-3.9835205 1.8775482 -8.838684 1.7614136 -12.694092 -0.30361938c-1.6422119 4.6701965 -6.2644653 8.106476 -11.8697815 8.824249c-5.605316 0.71777344 -11.188843 -1.4116516 -14.338257 -5.4682617c-3.8605652 1.999527 -8.492889 2.5755157 -12.852051 1.5980682c-4.3591614 -0.97746277 -8.077972 -3.4260254 -10.317505 -6.7933655l0 0c-3.9449768 0.39649963 -7.759247 -1.359024 -9.549774 -4.395355c-1.7905273 -3.036316 -1.176178 -6.707062 1.5381775 -9.19046l0 0c-3.519043 -1.7789764 -5.3146667 -5.309067 -4.450531 -8.749466c0.86413574 -3.4403992 4.19223 -6.01149 8.248779 -6.3725586z" fill-rule="evenodd"></path><path stroke="#000000" stroke-width="1.0" stroke-linejoin="round" stroke-linecap="butt" d="m399.56055 160.41704l0 0c1.6606445 0.83950806 3.579071 1.2203217 5.497711 1.0913239m2.5130005 12.4947815c0.82510376 -0.08293152 1.6338501 -0.25854492 2.4053955 -0.52230835m20.763 5.717407c-0.58029175 -0.74746704 -1.0661621 -1.5462036 -1.4493103 -2.3825989m27.658356 -0.97354126l0 0c0.29940796 -0.8514404 0.4933777 -1.727768 0.57873535 -2.614334m18.62445 -6.436676c0.03881836 -4.1515045 -2.706482 -7.952652 -7.0567017 -9.770767m16.636597 -10.416702c-0.7045288 1.4136658 -1.7800293 2.6677094 -3.1421814 3.663803m-4.45401 -17.197876l0 0c0.120025635 0.5708771 0.17556763 1.1503143 0.16586304 1.7303162m-18.581207 -5.968277l0 0c-0.6581116 0.6651306 -1.2003174 1.4084167 -1.6097107 2.2066803m-14.400909 -0.90448l0 0c-0.350708 0.60414124 -0.61260986 1.2434082 -0.77963257 1.9031067m-17.56192 0.52053833l0 0c1.0239868 0.5151062 1.9713135 1.135086 2.821167 1.8463287m-24.752472 10.707336l0 0c0.10418701 0.6576538 0.26882935 1.30719 0.4923401 1.9425507" fill-rule="evenodd"></path></g></svg>

