<?xml version="1.0" standalone="yes"?>

<svg version="1.1" viewBox="0.0 0.0 771.3490813648294 591.6272965879265" fill="none" stroke="none" stroke-linecap="square" stroke-miterlimit="10" xmlns="http://www.w3.org/2000/svg" xmlns:xlink="http://www.w3.org/1999/xlink"><clipPath id="p.0"><path d="m0 0l771.34906 0l0 591.6273l-771.34906 0l0 -591.6273z" clip-rule="nonzero"></path></clipPath><g clip-path="url(#p.0)"><path fill="#000000" fill-opacity="0.0" d="m0 0l771.34906 0l0 591.6273l-771.34906 0z" fill-rule="evenodd"></path><path fill="#cfe2f3" d="m16.787401 278.81943l0 0c0 -14.864136 12.049774 -26.91391 26.913923 -26.91391l250.92807 0c7.1380005 0 13.983673 2.835556 19.031006 7.882904c5.047333 5.047333 7.882904 11.893005 7.882904 19.031006l0 107.652466c0 14.864166 -12.049774 26.91394 -26.91391 26.91394l-250.92807 0c-14.864149 0 -26.913923 -12.049774 -26.913923 -26.91394z" fill-rule="evenodd"></path><path stroke="#000000" stroke-width="1.0" stroke-linejoin="round" stroke-linecap="butt" d="m16.787401 278.81943l0 0c0 -14.864136 12.049774 -26.91391 26.913923 -26.91391l250.92807 0c7.1380005 0 13.983673 2.835556 19.031006 7.882904c5.047333 5.047333 7.882904 11.893005 7.882904 19.031006l0 107.652466c0 14.864166 -12.049774 26.91394 -26.91391 26.91394l-250.92807 0c-14.864149 0 -26.913923 -12.049774 -26.913923 -26.91394z" fill-rule="evenodd"></path><path fill="#b6d7a8" d="m29.355755 331.29675l0 0c0 -7.466278 6.052601 -13.51889 13.518864 -13.51889l66.1735 0c3.5854263 0 7.024002 1.4243164 9.55928 3.9595947c2.5352783 2.5352783 3.959587 5.9738464 3.959587 9.559296l0 54.073822c0 7.4662476 -6.0526047 13.51886 -13.5188675 13.51886l-66.1735 0c-7.466263 0 -13.518864 -6.0526123 -13.518864 -13.51886z" fill-rule="evenodd"></path><path stroke="#000000" stroke-width="1.0" stroke-linejoin="round" stroke-linecap="butt" d="m29.355755 331.29675l0 0c0 -7.466278 6.052601 -13.51889 13.518864 -13.51889l66.1735 0c3.5854263 0 7.024002 1.4243164 9.55928 3.9595947c2.5352783 2.5352783 3.959587 5.9738464 3.959587 9.559296l0 54.073822c0 7.4662476 -6.0526047 13.51886 -13.5188675 13.51886l-66.1735 0c-7.466263 0 -13.518864 -6.0526123 -13.518864 -13.51886z" fill-rule="evenodd"></path><path fill="#000000" d="m43.784046 365.25366l0 -13.59375l5.125 0q1.359375 0 2.078125 0.125q1.0 0.171875 1.671875 0.640625q0.671875 0.46875 1.078125 1.3125q0.421875 0.84375 0.421875 1.84375q0 1.734375 -1.109375 2.9375q-1.09375 1.203125 -3.984375 1.203125l-3.484375 0l0 5.53125l-1.796875 0zm1.796875 -7.140625l3.515625 0q1.75 0 2.46875 -0.640625q0.734375 -0.65625 0.734375 -1.828125q0 -0.859375 -0.4375 -1.46875q-0.421875 -0.609375 -1.125 -0.796875q-0.453125 -0.125 -1.671875 -0.125l-3.484375 0l0 4.859375z" fill-rule="nonzero"></path><path fill="#d0e0e3" d="m34.22642 347.87875l40.371037 0l0 20.914673l-40.371037 0z" fill-rule="evenodd"></path><path stroke="#000000" stroke-width="1.0" stroke-linejoin="round" stroke-linecap="butt" d="m34.22642 347.87875l40.371037 0l0 20.914673l-40.371037 0z" fill-rule="evenodd"></path><path fill="#000000" d="m45.063637 361.79608l2.484375 -6.4375l0.90625 0l2.640625 6.4375l-0.96875 0l-0.75 -1.953125l-2.703125 0l-0.703125 1.953125l-0.90625 0zm1.859375 -2.640625l2.1875 0l-0.671875 -1.796875q-0.3125 -0.8125 -0.453125 -1.328125q-0.125 0.625 -0.359375 1.234375l-0.703125 1.890625zm5.0655365 2.640625l0 -6.4375l2.4375 0q0.640625 0 0.984375 0.0625q0.46875 0.078125 0.78125 0.296875q0.328125 0.21875 0.515625 0.625q0.203125 0.390625 0.203125 0.875q0 0.828125 -0.53125 1.390625q-0.515625 0.5625 -1.875 0.5625l-1.65625 0l0 2.625l-0.859375 0zm0.859375 -3.375l1.671875 0q0.8125 0 1.15625 -0.3125q0.359375 -0.3125 0.359375 -0.859375q0 -0.40625 -0.203125 -0.6875q-0.203125 -0.296875 -0.546875 -0.390625q-0.203125 -0.0625 -0.796875 -0.0625l-1.640625 0l0 2.3125zm5.3624115 3.375l0 -6.4375l2.4375 0q0.640625 0 0.984375 0.0625q0.46875 0.078125 0.78125 0.296875q0.328125 0.21875 0.515625 0.625q0.203125 0.390625 0.203125 0.875q0 0.828125 -0.53125 1.390625q-0.515625 0.5625 -1.875 0.5625l-1.65625 0l0 2.625l-0.859375 0zm0.859375 -3.375l1.671875 0q0.8125 0 1.15625 -0.3125q0.359375 -0.3125 0.359375 -0.859375q0 -0.40625 -0.203125 -0.6875q-0.203125 -0.296875 -0.546875 -0.390625q-0.203125 -0.0625 -0.796875 -0.0625l-1.640625 0l0 2.3125z" fill-rule="nonzero"></path><path fill="#d0e0e3" d="m77.34146 347.87875l40.37104 0l0 20.914673l-40.37104 0z" fill-rule="evenodd"></path><path stroke="#000000" stroke-width="1.0" stroke-linejoin="round" stroke-linecap="butt" d="m77.34146 347.87875l40.37104 0l0 20.914673l-40.37104 0z" fill-rule="evenodd"></path><path fill="#000000" d="m88.56214 356.01608l0 -5.734375l1.140625 0l1.359375 4.0625q0.1875 0.5625 0.265625 0.84375q0.109375 -0.3125 0.3125 -0.921875l1.375 -3.984375l1.015625 0l0 5.734375l-0.734375 0l0 -4.796875l-1.65625 4.796875l-0.6875 0l-1.65625 -4.875l0 4.875l-0.734375 0zm6.6015625 -4.921875l0 -0.8125l0.703125 0l0 0.8125l-0.703125 0zm0 4.921875l0 -4.15625l0.703125 0l0 4.15625l-0.703125 0zm1.7773438 0l0 -4.15625l0.625 0l0 0.59375q0.46875 -0.6875 1.328125 -0.6875q0.375 0 0.6875 0.140625q0.3125 0.140625 0.46875 0.359375q0.15625 0.21875 0.21875 0.515625q0.046875 0.1875 0.046875 0.6875l0 2.546875l-0.703125 0l0 -2.53125q0 -0.421875 -0.09375 -0.625q-0.078125 -0.21875 -0.296875 -0.34375q-0.203125 -0.140625 -0.484375 -0.140625q-0.4375 0 -0.765625 0.296875q-0.328125 0.28125 -0.328125 1.078125l0 2.265625l-0.703125 0zm4.4492188 -4.921875l0 -0.8125l0.703125 0l0 0.8125l-0.703125 0zm0 4.921875l0 -4.15625l0.703125 0l0 4.15625l-0.703125 0zm1.5117188 -2.078125q0 -1.15625 0.640625 -1.703125q0.53125 -0.46875 1.3125 -0.46875q0.84375 0 1.390625 0.5625q0.546875 0.5625 0.546875 1.546875q0 0.8125 -0.25 1.265625q-0.234375 0.453125 -0.703125 0.71875q-0.453125 0.25 -0.984375 0.25q-0.875 0 -1.421875 -0.5625q-0.53125 -0.5625 -0.53125 -1.609375zm0.71875 0q0 0.796875 0.34375 1.203125q0.359375 0.390625 0.890625 0.390625q0.515625 0 0.859375 -0.390625q0.359375 -0.40625 0.359375 -1.21875q0 -0.78125 -0.359375 -1.171875q-0.34375 -0.390625 -0.859375 -0.390625q-0.53125 0 -0.890625 0.390625q-0.34375 0.390625 -0.34375 1.1875z" fill-rule="nonzero"></path><path fill="#000000" d="m92.00355 364.00046l0.765625 0.203125q-0.25 0.921875 -0.875 1.421875q-0.609375 0.484375 -1.5 0.484375q-0.921875 0 -1.515625 -0.375q-0.578125 -0.375 -0.875 -1.09375q-0.296875 -0.71875 -0.296875 -1.53125q0 -0.890625 0.328125 -1.5625q0.34375 -0.671875 0.96875 -1.015625q0.640625 -0.34375 1.40625 -0.34375q0.859375 0 1.4375 0.4375q0.59375 0.4375 0.8125 1.234375l-0.734375 0.171875q-0.203125 -0.625 -0.59375 -0.90625q-0.375 -0.28125 -0.9375 -0.28125q-0.671875 0 -1.109375 0.3125q-0.4375 0.3125 -0.625 0.84375q-0.171875 0.53125 -0.171875 1.109375q0 0.71875 0.203125 1.265625q0.21875 0.546875 0.65625 0.828125q0.453125 0.265625 0.984375 0.265625q0.640625 0 1.078125 -0.359375q0.4375 -0.375 0.59375 -1.109375zm1.5898438 2.015625l0 -5.734375l0.703125 0l0 5.734375l-0.703125 0zm1.7929688 -4.921875l0 -0.8125l0.703125 0l0 0.8125l-0.703125 0zm0 4.921875l0 -4.15625l0.703125 0l0 4.15625l-0.703125 0zm4.6210938 -1.34375l0.71875 0.09375q-0.171875 0.640625 -0.640625 1.0q-0.453125 0.34375 -1.1875 0.34375q-0.90625 0 -1.4375 -0.5625q-0.53125 -0.5625 -0.53125 -1.578125q0 -1.046875 0.53125 -1.625q0.546875 -0.578125 1.40625 -0.578125q0.828125 0 1.359375 0.578125q0.53125 0.5625 0.53125 1.59375q0 0.0625 -0.015625 0.1875l-3.09375 0q0.046875 0.671875 0.390625 1.046875q0.34375 0.359375 0.875 0.359375q0.375 0 0.640625 -0.203125q0.28125 -0.203125 0.453125 -0.65625zm-2.3125 -1.125l2.3125 0q-0.046875 -0.53125 -0.265625 -0.796875q-0.328125 -0.40625 -0.875 -0.40625q-0.484375 0 -0.8125 0.328125q-0.328125 0.328125 -0.359375 0.875zm3.9179688 2.46875l0 -4.15625l0.625 0l0 0.59375q0.46875 -0.6875 1.328125 -0.6875q0.375 0 0.6875 0.140625q0.3125 0.140625 0.46875 0.359375q0.15625 0.21875 0.21875 0.515625q0.046875 0.1875 0.046875 0.6875l0 2.546875l-0.703125 0l0 -2.53125q0 -0.421875 -0.09375 -0.625q-0.078125 -0.21875 -0.296875 -0.34375q-0.203125 -0.140625 -0.484375 -0.140625q-0.4375 0 -0.765625 0.296875q-0.328125 0.28125 -0.328125 1.078125l0 2.265625l-0.703125 0zm5.9804688 -0.625l0.109375 0.609375q-0.296875 0.078125 -0.53125 0.078125q-0.390625 0 -0.609375 -0.125q-0.203125 -0.125 -0.296875 -0.3125q-0.078125 -0.203125 -0.078125 -0.84375l0 -2.390625l-0.515625 0l0 -0.546875l0.515625 0l0 -1.015625l0.703125 -0.421875l0 1.4375l0.703125 0l0 0.546875l-0.703125 0l0 2.4375q0 0.296875 0.03125 0.390625q0.046875 0.078125 0.125 0.125q0.078125 0.046875 0.234375 0.046875q0.125 0 0.3125 -0.015625z" fill-rule="nonzero"></path><path fill="#000000" fill-opacity="0.0" d="m57.266403 325.4462l37.391685 0l0 13.24173l-37.391685 0z" fill-rule="evenodd"></path><path fill="#000000" d="m66.84453 334.74707l0 -5.734375l1.859375 0q1.0625 0 1.375 0.09375q0.5 0.125 0.828125 0.5625q0.328125 0.421875 0.328125 1.109375q0 0.53125 -0.1875 0.890625q-0.1875 0.359375 -0.484375 0.5625q-0.296875 0.203125 -0.609375 0.265625q-0.40625 0.09375 -1.1875 0.09375l-0.765625 0l0 2.15625l-1.15625 0zm1.15625 -4.765625l0 1.625l0.640625 0q0.6875 0 0.90625 -0.078125q0.234375 -0.09375 0.359375 -0.28125q0.140625 -0.203125 0.140625 -0.453125q0 -0.3125 -0.1875 -0.515625q-0.1875 -0.203125 -0.46875 -0.25q-0.203125 -0.046875 -0.828125 -0.046875l-0.5625 0zm3.9453125 1.9375q0 -0.875 0.265625 -1.46875q0.203125 -0.4375 0.53125 -0.78125q0.34375 -0.359375 0.75 -0.515625q0.53125 -0.234375 1.234375 -0.234375q1.265625 0 2.015625 0.796875q0.765625 0.78125 0.765625 2.171875q0 1.390625 -0.765625 2.171875q-0.75 0.78125 -2.0 0.78125q-1.28125 0 -2.046875 -0.78125q-0.75 -0.78125 -0.75 -2.140625zm1.203125 -0.046875q0 0.984375 0.4375 1.484375q0.453125 0.5 1.140625 0.5q0.703125 0 1.140625 -0.5q0.4375 -0.5 0.4375 -1.5q0 -0.984375 -0.4375 -1.46875q-0.421875 -0.484375 -1.140625 -0.484375q-0.703125 0 -1.140625 0.5q-0.4375 0.484375 -0.4375 1.46875zm5.2539062 -2.859375l2.109375 0q0.71875 0 1.09375 0.109375q0.5 0.15625 0.859375 0.53125q0.359375 0.375 0.546875 0.9375q0.1875 0.546875 0.1875 1.34375q0 0.703125 -0.171875 1.21875q-0.21875 0.625 -0.609375 1.015625q-0.296875 0.296875 -0.8125 0.453125q-0.390625 0.125 -1.03125 0.125l-2.171875 0l0 -5.734375zm1.15625 0.96875l0 3.796875l0.859375 0q0.484375 0 0.703125 -0.046875q0.28125 -0.078125 0.46875 -0.234375q0.1875 -0.171875 0.296875 -0.5625q0.125 -0.390625 0.125 -1.046875q0 -0.671875 -0.125 -1.015625q-0.109375 -0.359375 -0.328125 -0.5625q-0.203125 -0.203125 -0.53125 -0.265625q-0.234375 -0.0625 -0.953125 -0.0625l-0.515625 0z" fill-rule="nonzero"></path><path fill="#000000" fill-opacity="0.0" d="m54.41194 368.79343l21.549088 19.680664" fill-rule="evenodd"></path><path stroke="#000000" stroke-width="1.0" stroke-linejoin="round" stroke-linecap="butt" stroke-dasharray="1.0,3.0" d="m54.41194 368.79343l21.549088 19.680664" fill-rule="evenodd"></path><path fill="#000000" fill-opacity="0.0" d="m75.9695 388.4873l21.549088 -19.680695" fill-rule="evenodd"></path><path stroke="#000000" stroke-width="1.0" stroke-linejoin="round" stroke-linecap="butt" stroke-dasharray="1.0,3.0" d="m75.9695 388.4873l21.549088 -19.680695" fill-rule="evenodd"></path><path fill="#b7b7b7" d="m34.22701 376.4479l83.48497 0l0 12.039398l-83.48497 0z" fill-rule="evenodd"></path><path stroke="#000000" stroke-width="1.0" stroke-linejoin="round" stroke-linecap="butt" d="m34.22701 376.4479l83.48497 0l0 12.039398l-83.48497 0z" fill-rule="evenodd"></path><path fill="#000000" d="m58.803726 385.9276l-2.484375 -6.4375l0.921875 0l1.671875 4.671875q0.203125 0.5625 0.328125 1.0625q0.15625 -0.53125 0.359375 -1.0625l1.734375 -4.671875l0.875 0l-2.53125 6.4375l-0.875 0zm4.1280365 -3.140625q0 -1.59375 0.859375 -2.5q0.859375 -0.921875 2.21875 -0.921875q0.890625 0 1.609375 0.4375q0.71875 0.421875 1.09375 1.1875q0.375 0.765625 0.375 1.71875q0 0.984375 -0.390625 1.765625q-0.390625 0.765625 -1.125 1.171875q-0.71875 0.390625 -1.5625 0.390625q-0.90625 0 -1.625 -0.4375q-0.71875 -0.4375 -1.09375 -1.203125q-0.359375 -0.765625 -0.359375 -1.609375zm0.875 0.015625q0 1.171875 0.625 1.84375q0.625 0.65625 1.578125 0.65625q0.953125 0 1.578125 -0.671875q0.625 -0.671875 0.625 -1.921875q0 -0.78125 -0.265625 -1.359375q-0.265625 -0.59375 -0.78125 -0.921875q-0.515625 -0.328125 -1.140625 -0.328125q-0.90625 0 -1.5625 0.625q-0.65625 0.625 -0.65625 2.078125zm6.599472 3.125l0 -6.4375l0.859375 0l0 5.671875l3.171875 0l0 0.765625l-4.03125 0zm9.453491 -6.4375l0.859375 0l0 3.71875q0 0.96875 -0.234375 1.546875q-0.21875 0.5625 -0.796875 0.921875q-0.5625 0.359375 -1.5 0.359375q-0.90625 0 -1.484375 -0.3125q-0.5625 -0.3125 -0.8125 -0.90625q-0.25 -0.59375 -0.25 -1.609375l0 -3.71875l0.859375 0l0 3.71875q0 0.828125 0.15625 1.234375q0.15625 0.390625 0.53125 0.609375q0.375 0.21875 0.9375 0.21875q0.9375 0 1.328125 -0.421875q0.40625 -0.4375 0.40625 -1.640625l0 -3.71875zm2.4864807 6.4375l0 -6.4375l1.28125 0l1.515625 4.5625q0.21875 0.625 0.3125 0.953125q0.109375 -0.359375 0.34375 -1.03125l1.546875 -4.484375l1.140625 0l0 6.4375l-0.8125 0l0 -5.390625l-1.875 5.390625l-0.765625 0l-1.875 -5.484375l0 5.484375l-0.8125 0zm7.817276 0l0 -6.4375l4.65625 0l0 0.75l-3.8125 0l0 1.984375l3.5625 0l0 0.75l-3.5625 0l0 2.1875l3.953125 0l0 0.765625l-4.796875 0z" fill-rule="nonzero"></path><path fill="#b6d7a8" d="m215.76389 331.29675l0 0c0 -7.466278 6.0526123 -13.51889 13.518875 -13.51889l66.17351 0c3.5854187 0 7.023987 1.4243164 9.559265 3.9595947c2.5352783 2.5352783 3.9595947 5.9738464 3.9595947 9.559296l0 54.073822c0 7.4662476 -6.0526123 13.51886 -13.51886 13.51886l-66.17351 0c-7.466263 0 -13.518875 -6.0526123 -13.518875 -13.51886z" fill-rule="evenodd"></path><path stroke="#000000" stroke-width="1.0" stroke-linejoin="round" stroke-linecap="butt" d="m215.76389 331.29675l0 0c0 -7.466278 6.0526123 -13.51889 13.518875 -13.51889l66.17351 0c3.5854187 0 7.023987 1.4243164 9.559265 3.9595947c2.5352783 2.5352783 3.9595947 5.9738464 3.9595947 9.559296l0 54.073822c0 7.4662476 -6.0526123 13.51886 -13.51886 13.51886l-66.17351 0c-7.466263 0 -13.518875 -6.0526123 -13.518875 -13.51886z" fill-rule="evenodd"></path><path fill="#000000" d="m230.19218 365.25366l0 -13.59375l5.125 0q1.359375 0 2.078125 0.125q1.0 0.171875 1.671875 0.640625q0.671875 0.46875 1.078125 1.3125q0.421875 0.84375 0.421875 1.84375q0 1.734375 -1.109375 2.9375q-1.09375 1.203125 -3.984375 1.203125l-3.484375 0l0 5.53125l-1.796875 0zm1.796875 -7.140625l3.515625 0q1.75 0 2.46875 -0.640625q0.734375 -0.65625 0.734375 -1.828125q0 -0.859375 -0.4375 -1.46875q-0.421875 -0.609375 -1.125 -0.796875q-0.453125 -0.125 -1.671875 -0.125l-3.484375 0l0 4.859375z" fill-rule="nonzero"></path><path fill="#d0e0e3" d="m220.63455 347.87875l40.371033 0l0 20.914673l-40.371033 0z" fill-rule="evenodd"></path><path stroke="#000000" stroke-width="1.0" stroke-linejoin="round" stroke-linecap="butt" d="m220.63455 347.87875l40.371033 0l0 20.914673l-40.371033 0z" fill-rule="evenodd"></path><path fill="#000000" d="m231.47177 361.79608l2.484375 -6.4375l0.90625 0l2.640625 6.4375l-0.96875 0l-0.75 -1.953125l-2.703125 0l-0.703125 1.953125l-0.90625 0zm1.859375 -2.640625l2.1875 0l-0.671875 -1.796875q-0.3125 -0.8125 -0.453125 -1.328125q-0.125 0.625 -0.359375 1.234375l-0.703125 1.890625zm5.0655365 2.640625l0 -6.4375l2.4375 0q0.640625 0 0.984375 0.0625q0.46875 0.078125 0.78125 0.296875q0.328125 0.21875 0.515625 0.625q0.203125 0.390625 0.203125 0.875q0 0.828125 -0.53125 1.390625q-0.515625 0.5625 -1.875 0.5625l-1.65625 0l0 2.625l-0.859375 0zm0.859375 -3.375l1.671875 0q0.8125 0 1.15625 -0.3125q0.359375 -0.3125 0.359375 -0.859375q0 -0.40625 -0.203125 -0.6875q-0.203125 -0.296875 -0.546875 -0.390625q-0.203125 -0.0625 -0.796875 -0.0625l-1.640625 0l0 2.3125zm5.3624115 3.375l0 -6.4375l2.4375 0q0.640625 0 0.984375 0.0625q0.46875 0.078125 0.78125 0.296875q0.328125 0.21875 0.515625 0.625q0.203125 0.390625 0.203125 0.875q0 0.828125 -0.53125 1.390625q-0.515625 0.5625 -1.875 0.5625l-1.65625 0l0 2.625l-0.859375 0zm0.859375 -3.375l1.671875 0q0.8125 0 1.15625 -0.3125q0.359375 -0.3125 0.359375 -0.859375q0 -0.40625 -0.203125 -0.6875q-0.203125 -0.296875 -0.546875 -0.390625q-0.203125 -0.0625 -0.796875 -0.0625l-1.640625 0l0 2.3125z" fill-rule="nonzero"></path><path fill="#d0e0e3" d="m263.7496 347.87875l40.371033 0l0 20.914673l-40.371033 0z" fill-rule="evenodd"></path><path stroke="#000000" stroke-width="1.0" stroke-linejoin="round" stroke-linecap="butt" d="m263.7496 347.87875l40.371033 0l0 20.914673l-40.371033 0z" fill-rule="evenodd"></path><path fill="#000000" d="m274.97028 356.01608l0 -5.734375l1.140625 0l1.359375 4.0625q0.1875 0.5625 0.265625 0.84375q0.109375 -0.3125 0.3125 -0.921875l1.375 -3.984375l1.015625 0l0 5.734375l-0.734375 0l0 -4.796875l-1.65625 4.796875l-0.6875 0l-1.65625 -4.875l0 4.875l-0.734375 0zm6.6015625 -4.921875l0 -0.8125l0.703125 0l0 0.8125l-0.703125 0zm0 4.921875l0 -4.15625l0.703125 0l0 4.15625l-0.703125 0zm1.7773438 0l0 -4.15625l0.625 0l0 0.59375q0.46875 -0.6875 1.328125 -0.6875q0.375 0 0.6875 0.140625q0.3125 0.140625 0.46875 0.359375q0.15625 0.21875 0.21875 0.515625q0.046875 0.1875 0.046875 0.6875l0 2.546875l-0.703125 0l0 -2.53125q0 -0.421875 -0.09375 -0.625q-0.078125 -0.21875 -0.296875 -0.34375q-0.203125 -0.140625 -0.484375 -0.140625q-0.4375 0 -0.765625 0.296875q-0.328125 0.28125 -0.328125 1.078125l0 2.265625l-0.703125 0zm4.4492188 -4.921875l0 -0.8125l0.703125 0l0 0.8125l-0.703125 0zm0 4.921875l0 -4.15625l0.703125 0l0 4.15625l-0.703125 0zm1.5117188 -2.078125q0 -1.15625 0.640625 -1.703125q0.53125 -0.46875 1.3125 -0.46875q0.84375 0 1.390625 0.5625q0.546875 0.5625 0.546875 1.546875q0 0.8125 -0.25 1.265625q-0.234375 0.453125 -0.703125 0.71875q-0.453125 0.25 -0.984375 0.25q-0.875 0 -1.421875 -0.5625q-0.53125 -0.5625 -0.53125 -1.609375zm0.71875 0q0 0.796875 0.34375 1.203125q0.359375 0.390625 0.890625 0.390625q0.515625 0 0.859375 -0.390625q0.359375 -0.40625 0.359375 -1.21875q0 -0.78125 -0.359375 -1.171875q-0.34375 -0.390625 -0.859375 -0.390625q-0.53125 0 -0.890625 0.390625q-0.34375 0.390625 -0.34375 1.1875z" fill-rule="nonzero"></path><path fill="#000000" d="m278.41168 364.00046l0.765625 0.203125q-0.25 0.921875 -0.875 1.421875q-0.609375 0.484375 -1.5 0.484375q-0.921875 0 -1.515625 -0.375q-0.578125 -0.375 -0.875 -1.09375q-0.296875 -0.71875 -0.296875 -1.53125q0 -0.890625 0.328125 -1.5625q0.34375 -0.671875 0.96875 -1.015625q0.640625 -0.34375 1.40625 -0.34375q0.859375 0 1.4375 0.4375q0.59375 0.4375 0.8125 1.234375l-0.734375 0.171875q-0.203125 -0.625 -0.59375 -0.90625q-0.375 -0.28125 -0.9375 -0.28125q-0.671875 0 -1.109375 0.3125q-0.4375 0.3125 -0.625 0.84375q-0.171875 0.53125 -0.171875 1.109375q0 0.71875 0.203125 1.265625q0.21875 0.546875 0.65625 0.828125q0.453125 0.265625 0.984375 0.265625q0.640625 0 1.078125 -0.359375q0.4375 -0.375 0.59375 -1.109375zm1.5898438 2.015625l0 -5.734375l0.703125 0l0 5.734375l-0.703125 0zm1.7929688 -4.921875l0 -0.8125l0.703125 0l0 0.8125l-0.703125 0zm0 4.921875l0 -4.15625l0.703125 0l0 4.15625l-0.703125 0zm4.6210938 -1.34375l0.71875 0.09375q-0.171875 0.640625 -0.640625 1.0q-0.453125 0.34375 -1.1875 0.34375q-0.90625 0 -1.4375 -0.5625q-0.53125 -0.5625 -0.53125 -1.578125q0 -1.046875 0.53125 -1.625q0.546875 -0.578125 1.40625 -0.578125q0.828125 0 1.359375 0.578125q0.53125 0.5625 0.53125 1.59375q0 0.0625 -0.015625 0.1875l-3.09375 0q0.046875 0.671875 0.390625 1.046875q0.34375 0.359375 0.875 0.359375q0.375 0 0.640625 -0.203125q0.28125 -0.203125 0.453125 -0.65625zm-2.3125 -1.125l2.3125 0q-0.046875 -0.53125 -0.265625 -0.796875q-0.328125 -0.40625 -0.875 -0.40625q-0.484375 0 -0.8125 0.328125q-0.328125 0.328125 -0.359375 0.875zm3.9179688 2.46875l0 -4.15625l0.625 0l0 0.59375q0.46875 -0.6875 1.328125 -0.6875q0.375 0 0.6875 0.140625q0.3125 0.140625 0.46875 0.359375q0.15625 0.21875 0.21875 0.515625q0.046875 0.1875 0.046875 0.6875l0 2.546875l-0.703125 0l0 -2.53125q0 -0.421875 -0.09375 -0.625q-0.078125 -0.21875 -0.296875 -0.34375q-0.203125 -0.140625 -0.484375 -0.140625q-0.4375 0 -0.765625 0.296875q-0.328125 0.28125 -0.328125 1.078125l0 2.265625l-0.703125 0zm5.9804688 -0.625l0.109375 0.609375q-0.296875 0.078125 -0.53125 0.078125q-0.390625 0 -0.609375 -0.125q-0.203125 -0.125 -0.296875 -0.3125q-0.078125 -0.203125 -0.078125 -0.84375l0 -2.390625l-0.515625 0l0 -0.546875l0.515625 0l0 -1.015625l0.703125 -0.421875l0 1.4375l0.703125 0l0 0.546875l-0.703125 0l0 2.4375q0 0.296875 0.03125 0.390625q0.046875 0.078125 0.125 0.125q0.078125 0.046875 0.234375 0.046875q0.125 0 0.3125 -0.015625z" fill-rule="nonzero"></path><path fill="#000000" fill-opacity="0.0" d="m243.67455 325.4462l37.391678 0l0 13.24173l-37.391678 0z" fill-rule="evenodd"></path><path fill="#000000" d="m253.25267 334.74707l0 -5.734375l1.859375 0q1.0624847 0 1.3749847 0.09375q0.5 0.125 0.828125 0.5625q0.328125 0.421875 0.328125 1.109375q0 0.53125 -0.1875 0.890625q-0.1875 0.359375 -0.484375 0.5625q-0.296875 0.203125 -0.609375 0.265625q-0.40623474 0.09375 -1.1874847 0.09375l-0.765625 0l0 2.15625l-1.15625 0zm1.15625 -4.765625l0 1.625l0.640625 0q0.6875 0 0.90625 -0.078125q0.23435974 -0.09375 0.35935974 -0.28125q0.140625 -0.203125 0.140625 -0.453125q0 -0.3125 -0.1875 -0.515625q-0.1875 -0.203125 -0.46873474 -0.25q-0.203125 -0.046875 -0.828125 -0.046875l-0.5625 0zm3.9452972 1.9375q0 -0.875 0.265625 -1.46875q0.203125 -0.4375 0.53125 -0.78125q0.34375 -0.359375 0.75 -0.515625q0.53125 -0.234375 1.234375 -0.234375q1.265625 0 2.015625 0.796875q0.765625 0.78125 0.765625 2.171875q0 1.390625 -0.765625 2.171875q-0.75 0.78125 -2.0 0.78125q-1.28125 0 -2.046875 -0.78125q-0.75 -0.78125 -0.75 -2.140625zm1.203125 -0.046875q0 0.984375 0.4375 1.484375q0.453125 0.5 1.140625 0.5q0.703125 0 1.140625 -0.5q0.4375 -0.5 0.4375 -1.5q0 -0.984375 -0.4375 -1.46875q-0.421875 -0.484375 -1.140625 -0.484375q-0.703125 0 -1.140625 0.5q-0.4375 0.484375 -0.4375 1.46875zm5.2539062 -2.859375l2.109375 0q0.71875 0 1.09375 0.109375q0.5 0.15625 0.859375 0.53125q0.359375 0.375 0.546875 0.9375q0.1875 0.546875 0.1875 1.34375q0 0.703125 -0.171875 1.21875q-0.21875 0.625 -0.609375 1.015625q-0.296875 0.296875 -0.8125 0.453125q-0.390625 0.125 -1.03125 0.125l-2.171875 0l0 -5.734375zm1.15625 0.96875l0 3.796875l0.859375 0q0.484375 0 0.703125 -0.046875q0.28125 -0.078125 0.46875 -0.234375q0.1875 -0.171875 0.296875 -0.5625q0.125 -0.390625 0.125 -1.046875q0 -0.671875 -0.125 -1.015625q-0.109375 -0.359375 -0.328125 -0.5625q-0.203125 -0.203125 -0.53125 -0.265625q-0.234375 -0.0625 -0.953125 -0.0625l-0.515625 0z" fill-rule="nonzero"></path><path fill="#000000" fill-opacity="0.0" d="m240.82008 368.79343l21.549088 19.680664" fill-rule="evenodd"></path><path stroke="#000000" stroke-width="1.0" stroke-linejoin="round" stroke-linecap="butt" stroke-dasharray="1.0,3.0" d="m240.82008 368.79343l21.549088 19.680664" fill-rule="evenodd"></path><path fill="#000000" fill-opacity="0.0" d="m262.37762 388.4873l21.549103 -19.680695" fill-rule="evenodd"></path><path stroke="#000000" stroke-width="1.0" stroke-linejoin="round" stroke-linecap="butt" stroke-dasharray="1.0,3.0" d="m262.37762 388.4873l21.549103 -19.680695" fill-rule="evenodd"></path><path fill="#b7b7b7" d="m220.63515 376.4479l83.48497 0l0 12.039398l-83.48497 0z" fill-rule="evenodd"></path><path stroke="#000000" stroke-width="1.0" stroke-linejoin="round" stroke-linecap="butt" d="m220.63515 376.4479l83.48497 0l0 12.039398l-83.48497 0z" fill-rule="evenodd"></path><path fill="#000000" d="m245.21187 385.9276l-2.484375 -6.4375l0.921875 0l1.671875 4.671875q0.203125 0.5625 0.328125 1.0625q0.15625 -0.53125 0.359375 -1.0625l1.734375 -4.671875l0.875 0l-2.53125 6.4375l-0.875 0zm4.1280365 -3.140625q0 -1.59375 0.859375 -2.5q0.859375 -0.921875 2.21875 -0.921875q0.890625 0 1.609375 0.4375q0.71875 0.421875 1.09375 1.1875q0.375 0.765625 0.375 1.71875q0 0.984375 -0.390625 1.765625q-0.390625 0.765625 -1.125 1.171875q-0.71875 0.390625 -1.5625 0.390625q-0.90625 0 -1.625 -0.4375q-0.71875 -0.4375 -1.09375 -1.203125q-0.359375 -0.765625 -0.359375 -1.609375zm0.875 0.015625q0 1.171875 0.625 1.84375q0.625 0.65625 1.578125 0.65625q0.953125 0 1.578125 -0.671875q0.625 -0.671875 0.625 -1.921875q0 -0.78125 -0.265625 -1.359375q-0.265625 -0.59375 -0.78125 -0.921875q-0.515625 -0.328125 -1.140625 -0.328125q-0.90625 0 -1.5625 0.625q-0.65625 0.625 -0.65625 2.078125zm6.599457 3.125l0 -6.4375l0.859375 0l0 5.671875l3.171875 0l0 0.765625l-4.03125 0zm9.453491 -6.4375l0.859375 0l0 3.71875q0 0.96875 -0.234375 1.546875q-0.21875 0.5625 -0.796875 0.921875q-0.5625 0.359375 -1.5 0.359375q-0.90625 0 -1.484375 -0.3125q-0.5625 -0.3125 -0.8125 -0.90625q-0.25 -0.59375 -0.25 -1.609375l0 -3.71875l0.859375 0l0 3.71875q0 0.828125 0.15625 1.234375q0.15625 0.390625 0.53125 0.609375q0.375 0.21875 0.9375 0.21875q0.9375 0 1.328125 -0.421875q0.40625 -0.4375 0.40625 -1.640625l0 -3.71875zm2.4864807 6.4375l0 -6.4375l1.28125 0l1.515625 4.5625q0.21875 0.625 0.3125 0.953125q0.109375 -0.359375 0.34375 -1.03125l1.546875 -4.484375l1.140625 0l0 6.4375l-0.8125 0l0 -5.390625l-1.875 5.390625l-0.765625 0l-1.875 -5.484375l0 5.484375l-0.8125 0zm7.8172913 0l0 -6.4375l4.65625 0l0 0.75l-3.8125 0l0 1.984375l3.5625 0l0 0.75l-3.5625 0l0 2.1875l3.953125 0l0 0.765625l-4.796875 0z" fill-rule="nonzero"></path><path fill="#000000" fill-opacity="0.0" d="m122.56693 328.75854l93.196846 0l0 59.149597l-93.196846 0z" fill-rule="evenodd"></path><path fill="#000000" d="m152.61458 375.41333l0 -6.59375l6.578125 0l0 6.59375l-6.578125 0zm13.3359375 0l0 -6.59375l6.578125 0l0 6.59375l-6.578125 0zm13.3359375 0l0 -6.59375l6.578125 0l0 6.59375l-6.578125 0z" fill-rule="nonzero"></path><path fill="#000000" fill-opacity="0.0" d="m29.356955 251.90552l279.62204 0l0 53.5748l-279.62204 0z" fill-rule="evenodd"></path><path fill="#000000" d="m96.254715 285.6129l-2.984375 0l-1.1875 -3.09375l-5.4375 0l-1.125 3.09375l-2.90625 0l5.296875 -13.59375l2.90625 0l5.4375 13.59375zm-5.046875 -5.375l-1.875 -5.046875l-1.84375 5.046875l3.71875 0zm6.254196 5.375l0 -13.59375l4.421875 0q2.5 0 3.265625 0.203125q1.15625 0.296875 1.9375 1.328125q0.796875 1.015625 0.796875 2.640625q0 1.25 -0.453125 2.109375q-0.453125 0.859375 -1.15625 1.34375q-0.703125 0.484375 -1.421875 0.640625q-0.984375 0.203125 -2.84375 0.203125l-1.796875 0l0 5.125l-2.75 0zm2.75 -11.296875l0 3.859375l1.5 0q1.625 0 2.171875 -0.21875q0.546875 -0.21875 0.859375 -0.671875q0.3125 -0.453125 0.3125 -1.046875q0 -0.75 -0.4375 -1.234375q-0.4375 -0.484375 -1.09375 -0.59375q-0.5 -0.09375 -1.984375 -0.09375l-1.328125 0zm9.693573 11.296875l0 -13.59375l4.421875 0q2.5 0 3.265625 0.203125q1.15625 0.296875 1.9375 1.328125q0.796875 1.015625 0.796875 2.640625q0 1.25 -0.453125 2.109375q-0.453125 0.859375 -1.15625 1.34375q-0.703125 0.484375 -1.421875 0.640625q-0.984375 0.203125 -2.84375 0.203125l-1.796875 0l0 5.125l-2.75 0zm2.75 -11.296875l0 3.859375l1.5 0q1.625 0 2.171875 -0.21875q0.546875 -0.21875 0.859375 -0.671875q0.3125 -0.453125 0.3125 -1.046875q0 -0.75 -0.4375 -1.234375q-0.4375 -0.484375 -1.09375 -0.59375q-0.5 -0.09375 -1.984375 -0.09375l-1.328125 0zm14.876877 -2.296875l5.015625 0q1.703125 0 2.59375 0.25q1.1875 0.359375 2.046875 1.265625q0.859375 0.890625 1.296875 2.203125q0.453125 1.296875 0.453125 3.203125q0 1.6875 -0.421875 2.890625q-0.515625 1.484375 -1.453125 2.40625q-0.71875 0.703125 -1.9375 1.09375q-0.90625 0.28125 -2.421875 0.28125l-5.171875 0l0 -13.59375zm2.75 2.296875l0 9.0l2.046875 0q1.140625 0 1.65625 -0.125q0.671875 -0.171875 1.109375 -0.5625q0.4375 -0.40625 0.71875 -1.3125q0.28125 -0.921875 0.28125 -2.5q0 -1.578125 -0.28125 -2.421875q-0.28125 -0.84375 -0.78125 -1.3125q-0.5 -0.46875 -1.265625 -0.640625q-0.578125 -0.125 -2.25 -0.125l-1.234375 0zm10.722946 11.296875l0 -13.59375l10.09375 0l0 2.296875l-7.34375 0l0 3.015625l6.828125 0l0 2.28125l-6.828125 0l0 3.703125l7.609375 0l0 2.296875l-10.359375 0zm12.443573 0l0 -13.59375l4.4218597 0q2.5 0 3.265625 0.203125q1.15625 0.296875 1.9375 1.328125q0.796875 1.015625 0.796875 2.640625q0 1.25 -0.453125 2.109375q-0.453125 0.859375 -1.15625 1.34375q-0.703125 0.484375 -1.421875 0.640625q-0.984375 0.203125 -2.84375 0.203125l-1.7968597 0l0 5.125l-2.75 0zm2.75 -11.296875l0 3.859375l1.4999847 0q1.625 0 2.171875 -0.21875q0.546875 -0.21875 0.859375 -0.671875q0.3125 -0.453125 0.3125 -1.046875q0 -0.75 -0.4375 -1.234375q-0.4375 -0.484375 -1.09375 -0.59375q-0.5 -0.09375 -1.984375 -0.09375l-1.3281097 0zm9.771683 11.296875l0 -13.484375l2.75 0l0 11.1875l6.828125 0l0 2.296875l-9.578125 0zm10.770996 -6.71875q0 -2.078125 0.625 -3.484375q0.453125 -1.046875 1.25 -1.859375q0.8125 -0.828125 1.765625 -1.234375q1.28125 -0.53125 2.9375 -0.53125q3.0 0 4.796875 1.859375q1.8125 1.859375 1.8125 5.1875q0 3.296875 -1.796875 5.15625q-1.78125 1.859375 -4.78125 1.859375q-3.03125 0 -4.828125 -1.84375q-1.78125 -1.859375 -1.78125 -5.109375zm2.828125 -0.09375q0 2.3125 1.0625 3.515625q1.078125 1.1875 2.71875 1.1875q1.640625 0 2.6875 -1.1875q1.046875 -1.1875 1.046875 -3.546875q0 -2.34375 -1.03125 -3.484375q-1.015625 -1.15625 -2.703125 -1.15625q-1.703125 0 -2.75 1.171875q-1.03125 1.15625 -1.03125 3.5zm15.808289 6.8125l0 -5.71875l-4.984375 -7.875l3.21875 0l3.203125 5.375l3.140625 -5.375l3.15625 0l-5.0 7.890625l0 5.703125l-2.734375 0zm8.834198 0l0 -13.59375l4.109375 0l2.46875 9.265625l2.4375 -9.265625l4.125 0l0 13.59375l-2.546875 0l0 -10.703125l-2.703125 10.703125l-2.640625 0l-2.703125 -10.703125l0 10.703125l-2.546875 0zm15.572052 0l0 -13.59375l10.09375 0l0 2.296875l-7.34375 0l0 3.015625l6.828125 0l0 2.28125l-6.828125 0l0 3.703125l7.609375 0l0 2.296875l-10.359375 0zm12.474823 0l0 -13.59375l2.671875 0l5.578125 9.078125l0 -9.078125l2.546875 0l0 13.59375l-2.765625 0l-5.46875 -8.875l0 8.875l-2.5625 0zm16.504211 0l0 -11.296875l-4.03125 0l0 -2.296875l10.8125 0l0 2.296875l-4.03125 0l0 11.296875l-2.75 0z" fill-rule="nonzero"></path><path fill="#b7b7b7" d="m472.92914 508.65353l244.00787 0l0 50.24411l-244.00787 0z" fill-rule="evenodd"></path><path fill="#929292" d="m716.937 508.65353l16.748047 -16.748016l0 50.24408l-16.748047 16.748047z" fill-rule="evenodd"></path><path fill="#c5c5c5" d="m472.92914 508.65353l16.748016 -16.748016l244.0079 0l-16.748047 16.748016z" fill-rule="evenodd"></path><path fill="#000000" fill-opacity="0.0" d="m472.92914 508.65353l16.748016 -16.748016l244.0079 0l0 50.24408l-16.748047 16.748047l-244.00787 0zm0 0l244.00787 0l16.748047 -16.748016m-16.748047 16.748016l0 50.24411" fill-rule="evenodd"></path><path stroke="#000000" stroke-width="1.0" stroke-linejoin="round" stroke-linecap="butt" d="m472.92914 508.65353l16.748016 -16.748016l244.0079 0l0 50.24408l-16.748047 16.748047l-244.00787 0zm0 0l244.00787 0l16.748047 -16.748016m-16.748047 16.748016l0 50.24411" fill-rule="evenodd"></path><path fill="#000000" d="m550.1812 536.3206l1.6875 -0.140625q0.125 1.015625 0.5625 1.671875q0.4375 0.65625 1.359375 1.0625q0.9375 0.40625 2.09375 0.40625q1.03125 0 1.8125 -0.3125q0.796875 -0.3125 1.1875 -0.84375q0.390625 -0.53125 0.390625 -1.15625q0 -0.640625 -0.375 -1.109375q-0.375 -0.484375 -1.234375 -0.8125q-0.546875 -0.21875 -2.421875 -0.65625q-1.875 -0.453125 -2.625 -0.859375q-0.96875 -0.515625 -1.453125 -1.265625q-0.46875 -0.75 -0.46875 -1.6875q0 -1.03125 0.578125 -1.921875q0.59375 -0.90625 1.703125 -1.359375q1.125 -0.46875 2.5 -0.46875q1.515625 0 2.671875 0.484375q1.15625 0.484375 1.765625 1.4375q0.625 0.9375 0.671875 2.140625l-1.71875 0.125q-0.140625 -1.28125 -0.953125 -1.9375q-0.796875 -0.671875 -2.359375 -0.671875q-1.625 0 -2.375 0.609375q-0.75 0.59375 -0.75 1.4375q0 0.734375 0.53125 1.203125q0.515625 0.46875 2.703125 0.96875q2.203125 0.5 3.015625 0.875q1.1875 0.546875 1.75 1.390625q0.578125 0.828125 0.578125 1.921875q0 1.09375 -0.625 2.0625q-0.625 0.953125 -1.796875 1.484375q-1.15625 0.53125 -2.609375 0.53125q-1.84375 0 -3.09375 -0.53125q-1.25 -0.546875 -1.96875 -1.625q-0.703125 -1.078125 -0.734375 -2.453125zm16.506042 4.375l0 -12.0l-4.46875 0l0 -1.59375l10.765625 0l0 1.59375l-4.5 0l0 12.0l-1.796875 0zm7.395996 -6.625q0 -3.390625 1.8125 -5.296875q1.828125 -1.921875 4.703125 -1.921875q1.875 0 3.390625 0.90625q1.515625 0.890625 2.296875 2.5q0.796875 1.609375 0.796875 3.65625q0 2.0625 -0.84375 3.703125q-0.828125 1.625 -2.359375 2.46875q-1.53125 0.84375 -3.296875 0.84375q-1.921875 0 -3.4375 -0.921875q-1.5 -0.9375 -2.28125 -2.53125q-0.78125 -1.609375 -0.78125 -3.40625zm1.859375 0.03125q0 2.453125 1.3125 3.875q1.328125 1.40625 3.3125 1.40625q2.03125 0 3.34375 -1.421875q1.3125 -1.4375 1.3125 -4.0625q0 -1.65625 -0.5625 -2.890625q-0.546875 -1.234375 -1.640625 -1.921875q-1.078125 -0.6875 -2.421875 -0.6875q-1.90625 0 -3.28125 1.3125q-1.375 1.3125 -1.375 4.390625zm13.230164 6.59375l0 -13.59375l6.03125 0q1.8125 0 2.75 0.359375q0.953125 0.359375 1.515625 1.296875q0.5625 0.921875 0.5625 2.046875q0 1.453125 -0.9375 2.453125q-0.921875 0.984375 -2.890625 1.25q0.71875 0.34375 1.09375 0.671875q0.78125 0.734375 1.484375 1.8125l2.375 3.703125l-2.265625 0l-1.796875 -2.828125q-0.796875 -1.21875 -1.3125 -1.875q-0.5 -0.65625 -0.90625 -0.90625q-0.40625 -0.265625 -0.8125 -0.359375q-0.3125 -0.078125 -1.015625 -0.078125l-2.078125 0l0 6.046875l-1.796875 0zm1.796875 -7.59375l3.859375 0q1.234375 0 1.921875 -0.25q0.703125 -0.265625 1.0625 -0.828125q0.375 -0.5625 0.375 -1.21875q0 -0.96875 -0.703125 -1.578125q-0.703125 -0.625 -2.21875 -0.625l-4.296875 0l0 4.5zm10.144836 7.59375l5.234375 -13.59375l1.9375 0l5.5625 13.59375l-2.046875 0l-1.59375 -4.125l-5.6875 0l-1.484375 4.125l-1.921875 0zm3.921875 -5.578125l4.609375 0l-1.40625 -3.78125q-0.65625 -1.703125 -0.96875 -2.8125q-0.265625 1.3125 -0.734375 2.59375l-1.5 4.0zm16.381042 0.25l0 -1.609375l5.765625 0l0 5.046875q-1.328125 1.0625 -2.75 1.59375q-1.40625 0.53125 -2.890625 0.53125q-2.0 0 -3.640625 -0.859375q-1.625 -0.859375 -2.46875 -2.484375q-0.828125 -1.625 -0.828125 -3.625q0 -1.984375 0.828125 -3.703125q0.828125 -1.71875 2.390625 -2.546875q1.5625 -0.84375 3.59375 -0.84375q1.46875 0 2.65625 0.484375q1.203125 0.46875 1.875 1.328125q0.671875 0.84375 1.03125 2.21875l-1.625 0.4375q-0.3125 -1.03125 -0.765625 -1.625q-0.453125 -0.59375 -1.296875 -0.953125q-0.84375 -0.359375 -1.875 -0.359375q-1.234375 0 -2.140625 0.375q-0.890625 0.375 -1.453125 1.0q-0.546875 0.609375 -0.84375 1.34375q-0.53125 1.25 -0.53125 2.734375q0 1.8125 0.625 3.046875q0.640625 1.21875 1.828125 1.8125q1.203125 0.59375 2.546875 0.59375q1.171875 0 2.28125 -0.453125q1.109375 -0.453125 1.6875 -0.953125l0 -2.53125l-4.0 0zm8.18335 5.328125l0 -13.59375l9.84375 0l0 1.59375l-8.046875 0l0 4.171875l7.53125 0l0 1.59375l-7.53125 0l0 4.625l8.359375 0l0 1.609375l-10.15625 0z" fill-rule="nonzero"></path><path fill="#ffd966" d="m520.92914 442.7979l27.529419 0l0 10.037079l47.998108 0l0 49.11252l-75.52753 0z" fill-rule="evenodd"></path><path stroke="#bf9000" stroke-width="1.0" stroke-linejoin="round" stroke-linecap="butt" d="m520.92914 442.7979l27.529419 0l0 10.037079l47.998108 0l0 49.11252l-75.52753 0z" fill-rule="evenodd"></path><path fill="#000000" d="m537.61664 480.70187l1.640625 0.21875q-0.265625 1.6875 -1.375 2.65625q-1.109375 0.953125 -2.734375 0.953125q-2.015625 0 -3.25 -1.3125q-1.21875 -1.328125 -1.21875 -3.796875q0 -1.59375 0.515625 -2.78125q0.53125 -1.203125 1.609375 -1.796875q1.09375 -0.609375 2.359375 -0.609375q1.609375 0 2.625 0.8125q1.015625 0.8125 1.3125 2.3125l-1.625 0.25q-0.234375 -1.0 -0.828125 -1.5q-0.59375 -0.5 -1.421875 -0.5q-1.265625 0 -2.0625 0.90625q-0.78125 0.90625 -0.78125 2.859375q0 1.984375 0.765625 2.890625q0.765625 0.890625 1.984375 0.890625q0.984375 0 1.640625 -0.59375q0.65625 -0.609375 0.84375 -1.859375zm2.265625 -1.3125q0 -2.734375 1.53125 -4.0625q1.265625 -1.09375 3.09375 -1.09375q2.03125 0 3.3125 1.34375q1.296875 1.328125 1.296875 3.671875q0 1.90625 -0.578125 3.0q-0.5625 1.078125 -1.65625 1.6875q-1.078125 0.59375 -2.375 0.59375q-2.0625 0 -3.34375 -1.328125q-1.28125 -1.328125 -1.28125 -3.8125zm1.71875 0q0 1.890625 0.828125 2.828125q0.828125 0.9375 2.078125 0.9375q1.25 0 2.0625 -0.9375q0.828125 -0.953125 0.828125 -2.890625q0 -1.828125 -0.828125 -2.765625q-0.828125 -0.9375 -2.0625 -0.9375q-1.25 0 -2.078125 0.9375q-0.828125 0.9375 -0.828125 2.828125zm9.281982 4.921875l0 -9.859375l1.5 0l0 1.40625q1.09375 -1.625 3.140625 -1.625q0.890625 0 1.640625 0.328125q0.75 0.3125 1.109375 0.84375q0.375 0.515625 0.53125 1.21875q0.09375 0.46875 0.09375 1.625l0 6.0625l-1.671875 0l0 -6.0q0 -1.015625 -0.203125 -1.515625q-0.1875 -0.515625 -0.6875 -0.8125q-0.5 -0.296875 -1.171875 -0.296875q-1.0625 0 -1.84375 0.671875q-0.765625 0.671875 -0.765625 2.578125l0 5.375l-1.671875 0zm10.781921 0l0 -8.546875l-1.484375 0l0 -1.3125l1.484375 0l0 -1.046875q0 -0.984375 0.171875 -1.46875q0.234375 -0.65625 0.84375 -1.046875q0.609375 -0.40625 1.703125 -0.40625q0.703125 0 1.5625 0.15625l-0.25 1.46875q-0.515625 -0.09375 -0.984375 -0.09375q-0.765625 0 -1.078125 0.328125q-0.3125 0.3125 -0.3125 1.203125l0 0.90625l1.921875 0l0 1.3125l-1.921875 0l0 8.546875l-1.65625 0zm4.7927246 -11.6875l0 -1.90625l1.671875 0l0 1.90625l-1.671875 0zm0 11.6875l0 -9.859375l1.671875 0l0 9.859375l-1.671875 0zm3.8322754 0.8125l1.609375 0.25q0.109375 0.75 0.578125 1.09375q0.609375 0.453125 1.6875 0.453125q1.171875 0 1.796875 -0.46875q0.625 -0.453125 0.859375 -1.28125q0.125 -0.515625 0.109375 -2.15625q-1.09375 1.296875 -2.71875 1.296875q-2.03125 0 -3.15625 -1.46875q-1.109375 -1.46875 -1.109375 -3.515625q0 -1.40625 0.515625 -2.59375q0.515625 -1.203125 1.484375 -1.84375q0.96875 -0.65625 2.265625 -0.65625q1.75 0 2.875 1.40625l0 -1.1875l1.546875 0l0 8.515625q0 2.3125 -0.46875 3.265625q-0.46875 0.96875 -1.484375 1.515625q-1.015625 0.5625 -2.5 0.5625q-1.765625 0 -2.859375 -0.796875q-1.078125 -0.796875 -1.03125 -2.390625zm1.375 -5.921875q0 1.953125 0.765625 2.84375q0.78125 0.890625 1.9375 0.890625q1.140625 0 1.921875 -0.890625q0.78125 -0.890625 0.78125 -2.78125q0 -1.8125 -0.8125 -2.71875q-0.796875 -0.921875 -1.921875 -0.921875q-1.109375 0 -1.890625 0.90625q-0.78125 0.890625 -0.78125 2.671875z" fill-rule="nonzero"></path><path fill="#ffd966" d="m616.18634 442.7979l27.529419 0l0 10.037079l47.99817 0l0 49.11252l-75.52759 0z" fill-rule="evenodd"></path><path stroke="#bf9000" stroke-width="1.0" stroke-linejoin="round" stroke-linecap="butt" d="m616.18634 442.7979l27.529419 0l0 10.037079l47.99817 0l0 49.11252l-75.52759 0z" fill-rule="evenodd"></path><path fill="#000000" d="m626.6551 484.31125l0 -13.59375l4.6875 0q1.578125 0 2.421875 0.1875q1.15625 0.265625 1.984375 0.96875q1.078125 0.921875 1.609375 2.34375q0.53125 1.40625 0.53125 3.21875q0 1.546875 -0.359375 2.75q-0.359375 1.1875 -0.921875 1.984375q-0.5625 0.78125 -1.234375 1.234375q-0.671875 0.4375 -1.625 0.671875q-0.953125 0.234375 -2.1875 0.234375l-4.90625 0zm1.796875 -1.609375l2.90625 0q1.34375 0 2.109375 -0.25q0.765625 -0.25 1.21875 -0.703125q0.640625 -0.640625 1.0 -1.71875q0.359375 -1.078125 0.359375 -2.625q0 -2.125 -0.703125 -3.265625q-0.703125 -1.15625 -1.703125 -1.546875q-0.71875 -0.28125 -2.328125 -0.28125l-2.859375 0l0 10.390625zm10.176086 1.609375l5.234375 -13.59375l1.9375 0l5.5625 13.59375l-2.046875 0l-1.59375 -4.125l-5.6875 0l-1.484375 4.125l-1.921875 0zm3.921875 -5.578125l4.609375 0l-1.40625 -3.78125q-0.65625 -1.703125 -0.96875 -2.8125q-0.265625 1.3125 -0.734375 2.59375l-1.5 4.0zm13.4747925 5.578125l0 -12.0l-4.46875 0l0 -1.59375l10.765625 0l0 1.59375l-4.5 0l0 12.0l-1.796875 0zm6.442871 0l5.234375 -13.59375l1.9375 0l5.5625 13.59375l-2.046875 0l-1.59375 -4.125l-5.6875 0l-1.484375 4.125l-1.921875 0zm3.921875 -5.578125l4.609375 0l-1.40625 -3.78125q-0.65625 -1.703125 -0.96875 -2.8125q-0.265625 1.3125 -0.734375 2.59375l-1.5 4.0z" fill-rule="nonzero"></path><path fill="#cfe2f3" d="m450.92914 272.1239l0 0c0 -14.864166 12.049774 -26.913925 26.91391 -26.913925l250.92807 0c7.1380005 0 13.983704 2.835556 19.031006 7.882904c5.0473633 5.047348 7.8829346 11.89299 7.8829346 19.031021l0 107.652466c0 14.864136 -12.049805 26.91391 -26.91394 26.91391l-250.92807 0c-14.864136 0 -26.91391 -12.049774 -26.91391 -26.91391z" fill-rule="evenodd"></path><path stroke="#1155cc" stroke-width="1.0" stroke-linejoin="round" stroke-linecap="butt" d="m450.92914 272.1239l0 0c0 -14.864166 12.049774 -26.913925 26.91391 -26.913925l250.92807 0c7.1380005 0 13.983704 2.835556 19.031006 7.882904c5.0473633 5.047348 7.8829346 11.89299 7.8829346 19.031021l0 107.652466c0 14.864136 -12.049805 26.91391 -26.91394 26.91391l-250.92807 0c-14.864136 0 -26.91391 -12.049774 -26.91391 -26.91391z" fill-rule="evenodd"></path><path fill="#000000" fill-opacity="0.0" d="m556.7087 322.063l93.19684 0l0 59.149597l-93.19684 0z" fill-rule="evenodd"></path><path fill="#000000" d="m586.7563 368.7178l0 -6.59375l6.578125 0l0 6.59375l-6.578125 0zm13.3359375 0l0 -6.59375l6.578125 0l0 6.59375l-6.578125 0zm13.3359375 0l0 -6.59375l6.578125 0l0 6.59375l-6.578125 0z" fill-rule="nonzero"></path><path fill="#000000" fill-opacity="0.0" d="m468.22046 256.8504l270.17322 0l0 53.5748l-270.17322 0z" fill-rule="evenodd"></path><path fill="#000000" d="m510.33112 290.5578l0 -13.59375l4.109375 0l2.46875 9.265625l2.4375 -9.265625l4.125 0l0 13.59375l-2.546875 0l0 -10.703125l-2.703125 10.703125l-2.640625 0l-2.703125 -10.703125l0 10.703125l-2.546875 0zm15.4938965 0l0 -13.59375l2.75 0l0 13.59375l-2.75 0zm5.2927246 0l0 -13.59375l2.671875 0l5.578125 9.078125l0 -9.078125l2.546875 0l0 13.59375l-2.765625 0l-5.46875 -8.875l0 8.875l-2.5625 0zm13.363525 0l0 -13.59375l2.75 0l0 13.59375l-2.75 0zm4.7145996 -6.71875q0 -2.078125 0.625 -3.484375q0.453125 -1.046875 1.25 -1.859375q0.8125 -0.828125 1.765625 -1.234375q1.28125 -0.53125 2.9375 -0.53125q3.0 0 4.796875 1.859375q1.8125 1.859375 1.8125 5.1875q0 3.296875 -1.796875 5.15625q-1.78125 1.859375 -4.78125 1.859375q-3.03125 0 -4.828125 -1.84375q-1.78125 -1.859375 -1.78125 -5.109375zm2.828125 -0.09375q0 2.3125 1.0625 3.515625q1.078125 1.1875 2.71875 1.1875q1.640625 0 2.6875 -1.1875q1.046875 -1.1875 1.046875 -3.546875q0 -2.34375 -1.03125 -3.484375q-1.015625 -1.15625 -2.703125 -1.15625q-1.703125 0 -2.75 1.171875q-1.03125 1.15625 -1.03125 3.5zm17.413452 -6.78125l5.015625 0q1.703125 0 2.59375 0.25q1.1875 0.359375 2.046875 1.265625q0.859375 0.890625 1.296875 2.203125q0.453125 1.296875 0.453125 3.203125q0 1.6875 -0.421875 2.890625q-0.515625 1.484375 -1.453125 2.40625q-0.71875 0.703125 -1.9375 1.09375q-0.90625 0.28125 -2.421875 0.28125l-5.171875 0l0 -13.59375zm2.75 2.296875l0 9.0l2.046875 0q1.140625 0 1.65625 -0.125q0.671875 -0.171875 1.109375 -0.5625q0.4375 -0.40625 0.71875 -1.3125q0.28125 -0.921875 0.28125 -2.5q0 -1.578125 -0.28125 -2.421875q-0.28125 -0.84375 -0.78125 -1.3125q-0.5 -0.46875 -1.265625 -0.640625q-0.578125 -0.125 -2.25 -0.125l-1.234375 0zm10.722961 11.296875l0 -13.59375l10.09375 0l0 2.296875l-7.34375 0l0 3.015625l6.828125 0l0 2.28125l-6.828125 0l0 3.703125l7.609375 0l0 2.296875l-10.359375 0zm12.4435425 0l0 -13.59375l4.421875 0q2.5 0 3.265625 0.203125q1.15625 0.296875 1.9375 1.328125q0.796875 1.015625 0.796875 2.640625q0 1.25 -0.453125 2.109375q-0.453125 0.859375 -1.15625 1.34375q-0.703125 0.484375 -1.421875 0.640625q-0.984375 0.203125 -2.84375 0.203125l-1.796875 0l0 5.125l-2.75 0zm2.75 -11.296875l0 3.859375l1.5 0q1.625 0 2.171875 -0.21875q0.546875 -0.21875 0.859375 -0.671875q0.3125 -0.453125 0.3125 -1.046875q0 -0.75 -0.4375 -1.234375q-0.4375 -0.484375 -1.09375 -0.59375q-0.5 -0.09375 -1.984375 -0.09375l-1.328125 0zm9.7717285 11.296875l0 -13.484375l2.75 0l0 11.1875l6.828125 0l0 2.296875l-9.578125 0zm10.770996 -6.71875q0 -2.078125 0.625 -3.484375q0.453125 -1.046875 1.25 -1.859375q0.8125 -0.828125 1.765625 -1.234375q1.28125 -0.53125 2.9375 -0.53125q3.0 0 4.796875 1.859375q1.8125 1.859375 1.8125 5.1875q0 3.296875 -1.796875 5.15625q-1.78125 1.859375 -4.78125 1.859375q-3.03125 0 -4.828125 -1.84375q-1.78125 -1.859375 -1.78125 -5.109375zm2.828125 -0.09375q0 2.3125 1.0625 3.515625q1.078125 1.1875 2.71875 1.1875q1.640625 0 2.6875 -1.1875q1.046875 -1.1875 1.046875 -3.546875q0 -2.34375 -1.03125 -3.484375q-1.015625 -1.15625 -2.703125 -1.15625q-1.703125 0 -2.75 1.171875q-1.03125 1.15625 -1.03125 3.5zm15.808289 6.8125l0 -5.71875l-4.984375 -7.875l3.21875 0l3.203125 5.375l3.140625 -5.375l3.15625 0l-5.0 7.890625l0 5.703125l-2.734375 0zm8.8341675 0l0 -13.59375l4.109375 0l2.46875 9.265625l2.4375 -9.265625l4.125 0l0 13.59375l-2.546875 0l0 -10.703125l-2.703125 10.703125l-2.640625 0l-2.703125 -10.703125l0 10.703125l-2.546875 0zm15.5720825 0l0 -13.59375l10.09375 0l0 2.296875l-7.34375 0l0 3.015625l6.828125 0l0 2.28125l-6.828125 0l0 3.703125l7.609375 0l0 2.296875l-10.359375 0zm12.4747925 0l0 -13.59375l2.671875 0l5.578125 9.078125l0 -9.078125l2.546875 0l0 13.59375l-2.765625 0l-5.46875 -8.875l0 8.875l-2.5625 0zm16.504211 0l0 -11.296875l-4.03125 0l0 -2.296875l10.8125 0l0 2.296875l-4.03125 0l0 11.296875l-2.75 0z" fill-rule="nonzero"></path><path fill="#b6d7a8" d="m649.90564 324.60492l0 0c0 -7.4654236 6.05188 -13.517334 13.517334 -13.517334l66.16217 0c3.585022 0 7.0231934 1.4241333 9.5581665 3.959137c2.5350342 2.5350037 3.9591675 5.973175 3.9591675 9.558197l0 54.067688c0 7.4654236 -6.051941 13.517334 -13.517334 13.517334l-66.16217 0c-7.465454 0 -13.517334 -6.0519104 -13.517334 -13.517334z" fill-rule="evenodd"></path><path stroke="#000000" stroke-width="1.0" stroke-linejoin="round" stroke-linecap="butt" d="m649.90564 324.60492l0 0c0 -7.4654236 6.05188 -13.517334 13.517334 -13.517334l66.16217 0c3.585022 0 7.0231934 1.4241333 9.5581665 3.959137c2.5350342 2.5350037 3.9591675 5.973175 3.9591675 9.558197l0 54.067688c0 7.4654236 -6.051941 13.517334 -13.517334 13.517334l-66.16217 0c-7.465454 0 -13.517334 -6.0519104 -13.517334 -13.517334z" fill-rule="evenodd"></path><path fill="#d0e0e3" d="m655.8662 351.60892l81.29138 0l0 20.913391l-81.29138 0z" fill-rule="evenodd"></path><path stroke="#000000" stroke-width="1.0" stroke-linejoin="round" stroke-linecap="butt" d="m655.8662 351.60892l81.29138 0l0 20.913391l-81.29138 0z" fill-rule="evenodd"></path><path fill="#000000" d="m667.41876 365.8056l0 -7.875l1.578125 0l1.859375 5.578125q0.25 0.78125 0.375 1.15625q0.140625 -0.421875 0.421875 -1.25l1.875 -5.484375l1.40625 0l0 7.875l-1.0 0l0 -6.59375l-2.296875 6.59375l-0.9375 0l-2.265625 -6.703125l0 6.703125l-1.015625 0zm8.798584 -6.765625l0 -1.109375l0.96875 0l0 1.109375l-0.96875 0zm0 6.765625l0 -5.703125l0.96875 0l0 5.703125l-0.96875 0zm2.3518677 0l0 -5.703125l0.875 0l0 0.8125q0.625 -0.9375 1.8125 -0.9375q0.515625 0 0.953125 0.1875q0.4375 0.171875 0.640625 0.484375q0.21875 0.296875 0.3125 0.703125q0.046875 0.28125 0.046875 0.953125l0 3.5l-0.96875 0l0 -3.46875q0 -0.59375 -0.109375 -0.875q-0.109375 -0.296875 -0.40625 -0.46875q-0.28125 -0.1875 -0.671875 -0.1875q-0.609375 0 -1.0625 0.390625q-0.453125 0.390625 -0.453125 1.5l0 3.109375l-0.96875 0zm5.9421387 -6.765625l0 -1.109375l0.96875 0l0 1.109375l-0.96875 0zm0 6.765625l0 -5.703125l0.96875 0l0 5.703125l-0.96875 0zm1.9924316 -2.859375q0 -1.578125 0.890625 -2.34375q0.734375 -0.625 1.796875 -0.625q1.171875 0 1.90625 0.765625q0.75 0.765625 0.75 2.125q0 1.109375 -0.328125 1.75q-0.328125 0.625 -0.96875 0.96875q-0.625 0.34375 -1.359375 0.34375q-1.203125 0 -1.953125 -0.765625q-0.734375 -0.765625 -0.734375 -2.21875zm1.0 0q0 1.109375 0.46875 1.65625q0.484375 0.53125 1.21875 0.53125q0.71875 0 1.1875 -0.546875q0.484375 -0.546875 0.484375 -1.671875q0 -1.046875 -0.484375 -1.59375q-0.484375 -0.546875 -1.1875 -0.546875q-0.734375 0 -1.21875 0.546875q-0.46875 0.53125 -0.46875 1.625zm8.027771 0.328125l0.984375 -0.078125q0.0625 0.578125 0.3125 0.96875q0.265625 0.375 0.796875 0.609375q0.53125 0.234375 1.203125 0.234375q0.609375 0 1.0625 -0.171875q0.453125 -0.1875 0.671875 -0.484375q0.234375 -0.3125 0.234375 -0.6875q0 -0.375 -0.21875 -0.640625q-0.21875 -0.28125 -0.71875 -0.46875q-0.3125 -0.125 -1.40625 -0.375q-1.078125 -0.265625 -1.515625 -0.5q-0.5625 -0.296875 -0.84375 -0.734375q-0.265625 -0.4375 -0.265625 -0.984375q0 -0.59375 0.328125 -1.109375q0.34375 -0.515625 0.984375 -0.78125q0.65625 -0.28125 1.453125 -0.28125q0.875 0 1.546875 0.296875q0.671875 0.28125 1.03125 0.828125q0.359375 0.546875 0.390625 1.234375l-1.0 0.078125q-0.078125 -0.75 -0.546875 -1.125q-0.46875 -0.390625 -1.375 -0.390625q-0.9375 0 -1.375 0.359375q-0.4375 0.34375 -0.4375 0.828125q0 0.421875 0.3125 0.703125q0.296875 0.265625 1.5625 0.5625q1.28125 0.28125 1.75 0.5q0.6875 0.3125 1.015625 0.796875q0.328125 0.484375 0.328125 1.125q0 0.625 -0.359375 1.1875q-0.359375 0.546875 -1.046875 0.859375q-0.671875 0.3125 -1.515625 0.3125q-1.0625 0 -1.78125 -0.3125q-0.71875 -0.3125 -1.140625 -0.9375q-0.40625 -0.625 -0.421875 -1.421875zm11.232666 0.6875l1.0 0.125q-0.234375 0.875 -0.875 1.359375q-0.640625 0.484375 -1.625 0.484375q-1.25 0 -1.984375 -0.765625q-0.734375 -0.765625 -0.734375 -2.15625q0 -1.453125 0.734375 -2.234375q0.75 -0.796875 1.921875 -0.796875q1.15625 0 1.875 0.78125q0.71875 0.765625 0.71875 2.1875q0 0.078125 0 0.25l-4.25 0q0.046875 0.9375 0.515625 1.4375q0.484375 0.5 1.203125 0.5q0.53125 0 0.90625 -0.265625q0.375 -0.28125 0.59375 -0.90625zm-3.171875 -1.5625l3.1875 0q-0.0625 -0.71875 -0.359375 -1.078125q-0.46875 -0.546875 -1.203125 -0.546875q-0.671875 0 -1.125 0.453125q-0.453125 0.4375 -0.5 1.171875zm5.1921387 3.40625l0 -5.703125l0.859375 0l0 0.859375q0.34375 -0.609375 0.625 -0.796875q0.28125 -0.1875 0.609375 -0.1875q0.5 0 1.0 0.3125l-0.328125 0.890625q-0.359375 -0.203125 -0.71875 -0.203125q-0.3125 0 -0.5625 0.1875q-0.25 0.1875 -0.359375 0.53125q-0.15625 0.515625 -0.15625 1.125l0 2.984375l-0.96875 0zm5.142334 0l-2.171875 -5.703125l1.015625 0l1.234375 3.421875q0.1875 0.546875 0.359375 1.140625q0.125 -0.453125 0.359375 -1.078125l1.265625 -3.484375l1.0 0l-2.15625 5.703125l-0.90625 0zm7.640625 -1.84375l1.0 0.125q-0.234375 0.875 -0.875 1.359375q-0.640625 0.484375 -1.625 0.484375q-1.25 0 -1.984375 -0.765625q-0.734375 -0.765625 -0.734375 -2.15625q0 -1.453125 0.734375 -2.234375q0.75 -0.796875 1.921875 -0.796875q1.15625 0 1.875 0.78125q0.71875 0.765625 0.71875 2.1875q0 0.078125 0 0.25l-4.25 0q0.046875 0.9375 0.515625 1.4375q0.484375 0.5 1.203125 0.5q0.53125 0 0.90625 -0.265625q0.375 -0.28125 0.59375 -0.90625zm-3.171875 -1.5625l3.1875 0q-0.0625 -0.71875 -0.359375 -1.078125q-0.46875 -0.546875 -1.203125 -0.546875q-0.671875 0 -1.125 0.453125q-0.453125 0.4375 -0.5 1.171875zm5.1921387 3.40625l0 -5.703125l0.859375 0l0 0.859375q0.34375 -0.609375 0.625 -0.796875q0.28125 -0.1875 0.609375 -0.1875q0.5 0 1.0 0.3125l-0.328125 0.890625q-0.359375 -0.203125 -0.71875 -0.203125q-0.3125 0 -0.5625 0.1875q-0.25 0.1875 -0.359375 0.53125q-0.15625 0.515625 -0.15625 1.125l0 2.984375l-0.96875 0z" fill-rule="nonzero"></path><path fill="#000000" fill-opacity="0.0" d="m677.8163 318.75592l37.385803 0l0 13.2283325l-37.385803 0z" fill-rule="evenodd"></path><path fill="#000000" d="m687.3944 328.05008l0 -5.734375l1.859375 0q1.0625 0 1.375 0.09375q0.5 0.125 0.828125 0.5625q0.328125 0.421875 0.328125 1.109375q0 0.53125 -0.1875 0.890625q-0.1875 0.359375 -0.484375 0.5625q-0.296875 0.203125 -0.609375 0.265625q-0.40625 0.09375 -1.1875 0.09375l-0.765625 0l0 2.15625l-1.15625 0zm1.15625 -4.765625l0 1.625l0.640625 0q0.6875 0 0.90625 -0.078125q0.234375 -0.09375 0.359375 -0.28125q0.140625 -0.203125 0.140625 -0.453125q0 -0.3125 -0.1875 -0.515625q-0.1875 -0.203125 -0.46875 -0.25q-0.203125 -0.046875 -0.828125 -0.046875l-0.5625 0zm3.9453125 1.9375q0 -0.875 0.265625 -1.46875q0.203125 -0.4375 0.53125 -0.78125q0.34375 -0.359375 0.75 -0.515625q0.53125 -0.234375 1.234375 -0.234375q1.265625 0 2.015625 0.796875q0.765625 0.78125 0.765625 2.171875q0 1.390625 -0.765625 2.171875q-0.75 0.78125 -2.0 0.78125q-1.28125 0 -2.046875 -0.78125q-0.75 -0.78125 -0.75 -2.140625zm1.203125 -0.046875q0 0.984375 0.4375 1.484375q0.453125 0.5 1.140625 0.5q0.703125 0 1.140625 -0.5q0.4375 -0.5 0.4375 -1.5q0 -0.984375 -0.4375 -1.46875q-0.421875 -0.484375 -1.140625 -0.484375q-0.703125 0 -1.140625 0.5q-0.4375 0.484375 -0.4375 1.46875zm5.2539062 -2.859375l2.109375 0q0.71875 0 1.09375 0.109375q0.5 0.15625 0.859375 0.53125q0.359375 0.375 0.546875 0.9375q0.1875 0.546875 0.1875 1.34375q0 0.703125 -0.171875 1.21875q-0.21875 0.625 -0.609375 1.015625q-0.296875 0.296875 -0.8125 0.453125q-0.390625 0.125 -1.03125 0.125l-2.171875 0l0 -5.734375zm1.15625 0.96875l0 3.796875l0.859375 0q0.484375 0 0.703125 -0.046875q0.28125 -0.078125 0.46875 -0.234375q0.1875 -0.171875 0.296875 -0.5625q0.125 -0.390625 0.125 -1.046875q0 -0.671875 -0.125 -1.015625q-0.109375 -0.359375 -0.328125 -0.5625q-0.203125 -0.203125 -0.53125 -0.265625q-0.234375 -0.0625 -0.953125 -0.0625l-0.515625 0z" fill-rule="nonzero"></path><path fill="#b6d7a8" d="m463.4962 324.6012l0 0c0 -7.4662476 6.052582 -13.51886 13.51886 -13.51886l66.17349 0c3.5854492 0 7.023987 1.4243164 9.559265 3.9595947c2.5352783 2.5352783 3.9595947 5.9738464 3.9595947 9.559265l0 54.073853c0 7.4662476 -6.0526123 13.51886 -13.51886 13.51886l-66.17349 0c-7.466278 0 -13.51886 -6.0526123 -13.51886 -13.51886z" fill-rule="evenodd"></path><path stroke="#000000" stroke-width="1.0" stroke-linejoin="round" stroke-linecap="butt" d="m463.4962 324.6012l0 0c0 -7.4662476 6.052582 -13.51886 13.51886 -13.51886l66.17349 0c3.5854492 0 7.023987 1.4243164 9.559265 3.9595947c2.5352783 2.5352783 3.9595947 5.9738464 3.9595947 9.559265l0 54.073853c0 7.4662476 -6.0526123 13.51886 -13.51886 13.51886l-66.17349 0c-7.466278 0 -13.51886 -6.0526123 -13.51886 -13.51886z" fill-rule="evenodd"></path><path fill="#d0e0e3" d="m469.4568 351.60367l81.29132 0l0 20.913391l-81.29132 0z" fill-rule="evenodd"></path><path stroke="#000000" stroke-width="1.0" stroke-linejoin="round" stroke-linecap="butt" d="m469.4568 351.60367l81.29132 0l0 20.913391l-81.29132 0z" fill-rule="evenodd"></path><path fill="#000000" d="m481.0093 365.80035l0 -7.875l1.578125 0l1.859375 5.578125q0.25 0.78125 0.375 1.15625q0.140625 -0.421875 0.421875 -1.25l1.875 -5.484375l1.40625 0l0 7.875l-1.0 0l0 -6.59375l-2.296875 6.59375l-0.9375 0l-2.265625 -6.703125l0 6.703125l-1.015625 0zm8.7986145 -6.765625l0 -1.109375l0.96875 0l0 1.109375l-0.96875 0zm0 6.765625l0 -5.703125l0.96875 0l0 5.703125l-0.96875 0zm2.3518372 0l0 -5.703125l0.875 0l0 0.8125q0.625 -0.9375 1.8125 -0.9375q0.515625 0 0.953125 0.1875q0.4375 0.171875 0.640625 0.484375q0.21875 0.296875 0.3125 0.703125q0.046875 0.28125 0.046875 0.953125l0 3.5l-0.96875 0l0 -3.46875q0 -0.59375 -0.109375 -0.875q-0.109375 -0.296875 -0.40625 -0.46875q-0.28125 -0.1875 -0.671875 -0.1875q-0.609375 0 -1.0625 0.390625q-0.453125 0.390625 -0.453125 1.5l0 3.109375l-0.96875 0zm5.9421387 -6.765625l0 -1.109375l0.96875 0l0 1.109375l-0.96875 0zm0 6.765625l0 -5.703125l0.96875 0l0 5.703125l-0.96875 0zm1.9924622 -2.859375q0 -1.578125 0.890625 -2.34375q0.734375 -0.625 1.796875 -0.625q1.171875 0 1.90625 0.765625q0.75 0.765625 0.75 2.125q0 1.109375 -0.328125 1.75q-0.328125 0.625 -0.96875 0.96875q-0.625 0.34375 -1.359375 0.34375q-1.203125 0 -1.953125 -0.765625q-0.734375 -0.765625 -0.734375 -2.21875zm1.0 0q0 1.109375 0.46875 1.65625q0.484375 0.53125 1.21875 0.53125q0.71875 0 1.1875 -0.546875q0.484375 -0.546875 0.484375 -1.671875q0 -1.046875 -0.484375 -1.59375q-0.484375 -0.546875 -1.1875 -0.546875q-0.734375 0 -1.21875 0.546875q-0.46875 0.53125 -0.46875 1.625zm8.027771 0.328125l0.984375 -0.078125q0.0625 0.578125 0.3125 0.96875q0.265625 0.375 0.796875 0.609375q0.53125 0.234375 1.203125 0.234375q0.609375 0 1.0625 -0.171875q0.453125 -0.1875 0.671875 -0.484375q0.234375 -0.3125 0.234375 -0.6875q0 -0.375 -0.21875 -0.640625q-0.21875 -0.28125 -0.71875 -0.46875q-0.3125 -0.125 -1.40625 -0.375q-1.078125 -0.265625 -1.515625 -0.5q-0.5625 -0.296875 -0.84375 -0.734375q-0.265625 -0.4375 -0.265625 -0.984375q0 -0.59375 0.328125 -1.109375q0.34375 -0.515625 0.984375 -0.78125q0.65625 -0.28125 1.453125 -0.28125q0.875 0 1.546875 0.296875q0.671875 0.28125 1.03125 0.828125q0.359375 0.546875 0.390625 1.234375l-1.0 0.078125q-0.078125 -0.75 -0.546875 -1.125q-0.46875 -0.390625 -1.375 -0.390625q-0.9375 0 -1.375 0.359375q-0.4375 0.34375 -0.4375 0.828125q0 0.421875 0.3125 0.703125q0.296875 0.265625 1.5625 0.5625q1.28125 0.28125 1.75 0.5q0.6875 0.3125 1.015625 0.796875q0.328125 0.484375 0.328125 1.125q0 0.625 -0.359375 1.1875q-0.359375 0.546875 -1.046875 0.859375q-0.671875 0.3125 -1.515625 0.3125q-1.0625 0 -1.78125 -0.3125q-0.71875 -0.3125 -1.140625 -0.9375q-0.40625 -0.625 -0.421875 -1.421875zm11.232666 0.6875l1.0 0.125q-0.234375 0.875 -0.875 1.359375q-0.640625 0.484375 -1.625 0.484375q-1.25 0 -1.984375 -0.765625q-0.734375 -0.765625 -0.734375 -2.15625q0 -1.453125 0.734375 -2.234375q0.75 -0.796875 1.921875 -0.796875q1.15625 0 1.875 0.78125q0.71875 0.765625 0.71875 2.1875q0 0.078125 0 0.25l-4.25 0q0.046875 0.9375 0.515625 1.4375q0.484375 0.5 1.203125 0.5q0.53125 0 0.90625 -0.265625q0.375 -0.28125 0.59375 -0.90625zm-3.171875 -1.5625l3.1875 0q-0.0625 -0.71875 -0.359375 -1.078125q-0.46875 -0.546875 -1.203125 -0.546875q-0.671875 0 -1.125 0.453125q-0.453125 0.4375 -0.5 1.171875zm5.1920776 3.40625l0 -5.703125l0.859375 0l0 0.859375q0.34375 -0.609375 0.625 -0.796875q0.28125 -0.1875 0.609375 -0.1875q0.5 0 1.0 0.3125l-0.328125 0.890625q-0.359375 -0.203125 -0.71875 -0.203125q-0.3125 0 -0.5625 0.1875q-0.25 0.1875 -0.359375 0.53125q-0.15625 0.515625 -0.15625 1.125l0 2.984375l-0.96875 0zm5.142395 0l-2.171875 -5.703125l1.015625 0l1.234375 3.421875q0.1875 0.546875 0.359375 1.140625q0.125 -0.453125 0.359375 -1.078125l1.265625 -3.484375l1.0 0l-2.15625 5.703125l-0.90625 0zm7.640625 -1.84375l1.0 0.125q-0.234375 0.875 -0.875 1.359375q-0.640625 0.484375 -1.625 0.484375q-1.25 0 -1.984375 -0.765625q-0.734375 -0.765625 -0.734375 -2.15625q0 -1.453125 0.734375 -2.234375q0.75 -0.796875 1.921875 -0.796875q1.15625 0 1.875 0.78125q0.71875 0.765625 0.71875 2.1875q0 0.078125 0 0.25l-4.25 0q0.046875 0.9375 0.515625 1.4375q0.484375 0.5 1.203125 0.5q0.53125 0 0.90625 -0.265625q0.375 -0.28125 0.59375 -0.90625zm-3.171875 -1.5625l3.1875 0q-0.0625 -0.71875 -0.359375 -1.078125q-0.46875 -0.546875 -1.203125 -0.546875q-0.671875 0 -1.125 0.453125q-0.453125 0.4375 -0.5 1.171875zm5.1921387 3.40625l0 -5.703125l0.859375 0l0 0.859375q0.34375 -0.609375 0.625 -0.796875q0.28125 -0.1875 0.609375 -0.1875q0.5 0 1.0 0.3125l-0.328125 0.890625q-0.359375 -0.203125 -0.71875 -0.203125q-0.3125 0 -0.5625 0.1875q-0.25 0.1875 -0.359375 0.53125q-0.15625 0.515625 -0.15625 1.125l0 2.984375l-0.96875 0z" fill-rule="nonzero"></path><path fill="#000000" fill-opacity="0.0" d="m491.40683 318.75067l37.391693 0l0 13.24173l-37.391693 0z" fill-rule="evenodd"></path><path fill="#000000" d="m500.98495 328.0515l0 -5.734375l1.859375 0q1.0625 0 1.375 0.09375q0.5 0.125 0.828125 0.5625q0.328125 0.421875 0.328125 1.109375q0 0.53125 -0.1875 0.890625q-0.1875 0.359375 -0.484375 0.5625q-0.296875 0.203125 -0.609375 0.265625q-0.40625 0.09375 -1.1875 0.09375l-0.765625 0l0 2.15625l-1.15625 0zm1.15625 -4.765625l0 1.625l0.640625 0q0.6875 0 0.90625 -0.078125q0.234375 -0.09375 0.359375 -0.28125q0.140625 -0.203125 0.140625 -0.453125q0 -0.3125 -0.1875 -0.515625q-0.1875 -0.203125 -0.46875 -0.25q-0.203125 -0.046875 -0.828125 -0.046875l-0.5625 0zm3.9453125 1.9375q0 -0.875 0.265625 -1.46875q0.203125 -0.4375 0.53125 -0.78125q0.34375 -0.359375 0.75 -0.515625q0.53125 -0.234375 1.234375 -0.234375q1.265625 0 2.015625 0.796875q0.765625 0.78125 0.765625 2.171875q0 1.390625 -0.765625 2.171875q-0.75 0.78125 -2.0 0.78125q-1.28125 0 -2.046875 -0.78125q-0.75 -0.78125 -0.75 -2.140625zm1.203125 -0.046875q0 0.984375 0.4375 1.484375q0.453125 0.5 1.140625 0.5q0.703125 0 1.140625 -0.5q0.4375 -0.5 0.4375 -1.5q0 -0.984375 -0.4375 -1.46875q-0.421875 -0.484375 -1.140625 -0.484375q-0.703125 0 -1.140625 0.5q-0.4375 0.484375 -0.4375 1.46875zm5.2538757 -2.859375l2.109375 0q0.71875 0 1.09375 0.109375q0.5 0.15625 0.859375 0.53125q0.359375 0.375 0.546875 0.9375q0.1875 0.546875 0.1875 1.34375q0 0.703125 -0.171875 1.21875q-0.21875 0.625 -0.609375 1.015625q-0.296875 0.296875 -0.8125 0.453125q-0.390625 0.125 -1.03125 0.125l-2.171875 0l0 -5.734375zm1.15625 0.96875l0 3.796875l0.859375 0q0.484375 0 0.703125 -0.046875q0.28125 -0.078125 0.46875 -0.234375q0.1875 -0.171875 0.296875 -0.5625q0.125 -0.390625 0.125 -1.046875q0 -0.671875 -0.125 -1.015625q-0.109375 -0.359375 -0.328125 -0.5625q-0.203125 -0.203125 -0.53125 -0.265625q-0.234375 -0.0625 -0.953125 -0.0625l-0.515625 0z" fill-rule="nonzero"></path><path fill="#000000" fill-opacity="0.0" d="m510.10245 372.51706l24.59842 70.26773" fill-rule="evenodd"></path><path stroke="#000000" stroke-width="1.0" stroke-linejoin="round" stroke-linecap="butt" d="m510.10245 372.51706l23.466095 67.03311" fill-rule="evenodd"></path><path fill="#000000" stroke="#000000" stroke-width="1.0" stroke-linecap="butt" d="m533.56854 439.55017l-1.4329834 -0.6898804l2.0822754 2.5446777l0.040527344 -3.2878113z" fill-rule="evenodd"></path><path fill="#000000" fill-opacity="0.0" d="m696.5119 372.5223l-161.82678 70.26773" fill-rule="evenodd"></path><path stroke="#000000" stroke-width="1.0" stroke-linejoin="round" stroke-linecap="butt" d="m696.5119 372.5223l-158.68323 68.90277" fill-rule="evenodd"></path><path fill="#000000" stroke="#000000" stroke-width="1.0" stroke-linecap="butt" d="m537.8287 441.42505l0.58361816 -1.4794312l-2.3862305 2.262146l3.2820435 -0.19906616z" fill-rule="evenodd"></path><path fill="#000000" fill-opacity="0.0" d="m510.10245 372.51706l119.84256 70.26773" fill-rule="evenodd"></path><path stroke="#000000" stroke-width="1.0" stroke-linejoin="round" stroke-linecap="butt" d="m510.10245 372.51706l116.88614 68.53427" fill-rule="evenodd"></path><path fill="#000000" stroke="#000000" stroke-width="1.0" stroke-linecap="butt" d="m626.9886 441.05136l-1.5389404 0.40130615l3.234192 0.5926819l-2.0965576 -2.5329285z" fill-rule="evenodd"></path><path fill="#000000" fill-opacity="0.0" d="m696.5119 372.5223l-66.55115 70.26773" fill-rule="evenodd"></path><path stroke="#000000" stroke-width="1.0" stroke-linejoin="round" stroke-linecap="butt" d="m696.5119 372.5223l-64.19458 67.77948" fill-rule="evenodd"></path><path fill="#000000" stroke="#000000" stroke-width="1.0" stroke-linecap="butt" d="m632.3173 440.3018l-0.043151855 -1.5898132l-1.3081665 3.016632l2.941162 -1.4700012z" fill-rule="evenodd"></path><path fill="#d9ead3" d="m450.92914 176.92934l0 0c0 -5.444687 4.413788 -9.858475 9.858459 -9.858475l285.039 0c2.614624 0 5.1221313 1.0386658 6.9709473 2.8874817c1.8488159 1.8488159 2.8875122 4.3563538 2.8875122 6.970993l0 39.43268c0 5.4446716 -4.4138184 9.858459 -9.858459 9.858459l-285.039 0l0 0c-5.4446716 0 -9.858459 -4.413788 -9.858459 -9.858459z" fill-rule="evenodd"></path><path stroke="#38761d" stroke-width="1.0" stroke-linejoin="round" stroke-linecap="butt" d="m450.92914 176.92934l0 0c0 -5.444687 4.413788 -9.858475 9.858459 -9.858475l285.039 0c2.614624 0 5.1221313 1.0386658 6.9709473 2.8874817c1.8488159 1.8488159 2.8875122 4.3563538 2.8875122 6.970993l0 39.43268c0 5.4446716 -4.4138184 9.858459 -9.858459 9.858459l-285.039 0l0 0c-5.4446716 0 -9.858459 -4.413788 -9.858459 -9.858459z" fill-rule="evenodd"></path><path fill="#000000" d="m534.16156 203.56566l0 -13.59375l4.109375 0l2.46875 9.265625l2.4375 -9.265625l4.125 0l0 13.59375l-2.546875 0l0 -10.703125l-2.703125 10.703125l-2.640625 0l-2.703125 -10.703125l0 10.703125l-2.546875 0zm15.4938965 0l0 -13.59375l2.75 0l0 13.59375l-2.75 0zm5.2927246 0l0 -13.59375l2.671875 0l5.578125 9.078125l0 -9.078125l2.546875 0l0 13.59375l-2.765625 0l-5.46875 -8.875l0 8.875l-2.5625 0zm13.363525 0l0 -13.59375l2.75 0l0 13.59375l-2.75 0zm4.7145996 -6.71875q0 -2.078125 0.625 -3.484375q0.453125 -1.046875 1.25 -1.859375q0.8125 -0.828125 1.765625 -1.234375q1.28125 -0.53125 2.9375 -0.53125q3.0 0 4.796875 1.859375q1.8125 1.859375 1.8125 5.1875q0 3.296875 -1.796875 5.15625q-1.78125 1.859375 -4.78125 1.859375q-3.03125 0 -4.828125 -1.84375q-1.78125 -1.859375 -1.78125 -5.109375zm2.828125 -0.09375q0 2.3125 1.0625 3.515625q1.078125 1.1875 2.71875 1.1875q1.640625 0 2.6875 -1.1875q1.046875 -1.1875 1.046875 -3.546875q0 -2.34375 -1.03125 -3.484375q-1.015625 -1.15625 -2.703125 -1.15625q-1.703125 0 -2.75 1.171875q-1.03125 1.15625 -1.03125 3.5zm16.725952 2.390625l2.671875 -0.265625q0.234375 1.34375 0.96875 1.984375q0.75 0.625 2.0 0.625q1.328125 0 2.0 -0.5625q0.671875 -0.5625 0.671875 -1.3125q0 -0.484375 -0.28125 -0.8125q-0.28125 -0.34375 -0.984375 -0.59375q-0.484375 -0.171875 -2.203125 -0.59375q-2.203125 -0.546875 -3.09375 -1.34375q-1.265625 -1.125 -1.265625 -2.734375q0 -1.046875 0.59375 -1.953125q0.59375 -0.90625 1.703125 -1.375q1.109375 -0.46875 2.671875 -0.46875q2.5625 0 3.859375 1.125q1.296875 1.109375 1.359375 2.984375l-2.75 0.125q-0.171875 -1.046875 -0.75 -1.5q-0.578125 -0.46875 -1.75 -0.46875q-1.1875 0 -1.875 0.5q-0.4375 0.3125 -0.4375 0.84375q0 0.484375 0.421875 0.828125q0.515625 0.421875 2.515625 0.90625q2.0 0.46875 2.953125 0.984375q0.96875 0.5 1.515625 1.375q0.546875 0.875 0.546875 2.15625q0 1.171875 -0.65625 2.203125q-0.640625 1.015625 -1.828125 1.515625q-1.1875 0.484375 -2.96875 0.484375q-2.578125 0 -3.96875 -1.1875q-1.375 -1.1875 -1.640625 -3.46875zm13.1311035 4.421875l0 -13.59375l10.09375 0l0 2.296875l-7.34375 0l0 3.015625l6.828125 0l0 2.28125l-6.828125 0l0 3.703125l7.609375 0l0 2.296875l-10.359375 0zm12.4591675 0l0 -13.59375l5.78125 0q2.1875 0 3.171875 0.359375q0.984375 0.359375 1.578125 1.296875q0.59375 0.9375 0.59375 2.15625q0 1.53125 -0.90625 2.53125q-0.890625 0.984375 -2.6875 1.25q0.890625 0.515625 1.46875 1.140625q0.578125 0.625 1.5625 2.203125l1.671875 2.65625l-3.296875 0l-1.984375 -2.953125q-1.046875 -1.59375 -1.4375 -2.0q-0.390625 -0.421875 -0.828125 -0.5625q-0.4375 -0.15625 -1.390625 -0.15625l-0.546875 0l0 5.671875l-2.75 0zm2.75 -7.84375l2.03125 0q1.96875 0 2.453125 -0.171875q0.5 -0.171875 0.78125 -0.578125q0.28125 -0.40625 0.28125 -1.015625q0 -0.6875 -0.375 -1.109375q-0.359375 -0.421875 -1.03125 -0.53125q-0.328125 -0.046875 -2.0 -0.046875l-2.140625 0l0 3.453125zm14.191711 7.84375l-4.875 -13.59375l2.984375 0l3.4375 10.0625l3.328125 -10.0625l2.921875 0l-4.875 13.59375l-2.921875 0zm8.8810425 0l0 -13.59375l2.75 0l0 13.59375l-2.75 0zm13.9646 -5.0l2.671875 0.84375q-0.609375 2.21875 -2.046875 3.3125q-1.421875 1.078125 -3.609375 1.078125q-2.703125 0 -4.453125 -1.84375q-1.734375 -1.859375 -1.734375 -5.078125q0 -3.390625 1.75 -5.265625q1.75 -1.875 4.609375 -1.875q2.5 0 4.046875 1.46875q0.9375 0.875 1.390625 2.5l-2.71875 0.65625q-0.234375 -1.0625 -1.0 -1.671875q-0.765625 -0.609375 -1.859375 -0.609375q-1.515625 0 -2.453125 1.09375q-0.9375 1.078125 -0.9375 3.5q0 2.578125 0.921875 3.6875q0.921875 1.09375 2.40625 1.09375q1.109375 0 1.890625 -0.6875q0.78125 -0.703125 1.125 -2.203125zm4.7697754 5.0l0 -13.59375l10.09375 0l0 2.296875l-7.34375 0l0 3.015625l6.828125 0l0 2.28125l-6.828125 0l0 3.703125l7.609375 0l0 2.296875l-10.359375 0z" fill-rule="nonzero"></path><path fill="#000000" fill-opacity="0.0" d="m304.12064 358.3361l146.80316 -161.70079" fill-rule="evenodd"></path><path stroke="#4a86e8" stroke-width="3.0" stroke-linejoin="round" stroke-linecap="butt" stroke-dasharray="3.0,9.0" d="m304.12064 358.3361l139.89233 -154.08865" fill-rule="evenodd"></path><path fill="#4a86e8" stroke="#4a86e8" stroke-width="3.0" stroke-linecap="butt" d="m444.01297 204.24744l0.23013306 4.7656555l3.732727 -9.130661l-8.728516 4.5951385z" fill-rule="evenodd"></path><path fill="#d9ead3" d="m16.787401 178.42802l0 0c0 -5.444687 4.413786 -9.858475 9.858465 -9.858475l285.03897 0c2.614624 0 5.122162 1.0386658 6.970978 2.8874817c1.8488159 1.8488159 2.8874817 4.3563538 2.8874817 6.970993l0 39.43268c0 5.4446716 -4.413788 9.858459 -9.858459 9.858459l-285.03897 0l0 0c-5.4446793 0 -9.858465 -4.413788 -9.858465 -9.858459z" fill-rule="evenodd"></path><path stroke="#38761d" stroke-width="1.0" stroke-linejoin="round" stroke-linecap="butt" d="m16.787401 178.42802l0 0c0 -5.444687 4.413786 -9.858475 9.858465 -9.858475l285.03897 0c2.614624 0 5.122162 1.0386658 6.970978 2.8874817c1.8488159 1.8488159 2.8874817 4.3563538 2.8874817 6.970993l0 39.43268c0 5.4446716 -4.413788 9.858459 -9.858459 9.858459l-285.03897 0l0 0c-5.4446793 0 -9.858465 -4.413788 -9.858465 -9.858459z" fill-rule="evenodd"></path><path fill="#000000" d="m120.08254 205.06435l-2.984375 0l-1.1875 -3.09375l-5.4375 0l-1.125 3.09375l-2.90625 0l5.296875 -13.59375l2.90625 0l5.4375 13.59375zm-5.046875 -5.375l-1.875 -5.046875l-1.84375 5.046875l3.71875 0zm6.254196 5.375l0 -13.59375l4.421875 0q2.4999924 0 3.2656174 0.203125q1.15625 0.296875 1.9375 1.328125q0.796875 1.015625 0.796875 2.640625q0 1.25 -0.453125 2.109375q-0.453125 0.859375 -1.15625 1.34375q-0.703125 0.484375 -1.421875 0.640625q-0.9843674 0.203125 -2.8437424 0.203125l-1.796875 0l0 5.125l-2.75 0zm2.75 -11.296875l0 3.859375l1.5 0q1.625 0 2.171875 -0.21875q0.5468674 -0.21875 0.8593674 -0.671875q0.3125 -0.453125 0.3125 -1.046875q0 -0.75 -0.4375 -1.234375q-0.4375 -0.484375 -1.0937424 -0.59375q-0.5 -0.09375 -1.984375 -0.09375l-1.328125 0zm9.693565 11.296875l0 -13.59375l4.421875 0q2.5 0 3.265625 0.203125q1.15625 0.296875 1.9375 1.328125q0.796875 1.015625 0.796875 2.640625q0 1.25 -0.453125 2.109375q-0.453125 0.859375 -1.15625 1.34375q-0.703125 0.484375 -1.421875 0.640625q-0.984375 0.203125 -2.84375 0.203125l-1.796875 0l0 5.125l-2.75 0zm2.75 -11.296875l0 3.859375l1.5 0q1.625 0 2.171875 -0.21875q0.546875 -0.21875 0.859375 -0.671875q0.3125 -0.453125 0.3125 -1.046875q0 -0.75 -0.4375 -1.234375q-0.4375 -0.484375 -1.09375 -0.59375q-0.5 -0.09375 -1.984375 -0.09375l-1.328125 0zm14.189377 6.875l2.671875 -0.265625q0.234375 1.34375 0.96875 1.984375q0.75 0.625 2.0 0.625q1.328125 0 2.0 -0.5625q0.671875 -0.5625 0.671875 -1.3125q0 -0.484375 -0.28125 -0.8125q-0.28125 -0.34375 -0.984375 -0.59375q-0.484375 -0.171875 -2.203125 -0.59375q-2.203125 -0.546875 -3.09375 -1.34375q-1.265625 -1.125 -1.265625 -2.734375q0 -1.046875 0.59375 -1.953125q0.59375 -0.90625 1.703125 -1.375q1.109375 -0.46875 2.671875 -0.46875q2.5625 0 3.859375 1.125q1.296875 1.109375 1.359375 2.984375l-2.75 0.125q-0.171875 -1.046875 -0.75 -1.5q-0.578125 -0.46875 -1.75 -0.46875q-1.1875 0 -1.875 0.5q-0.4375 0.3125 -0.4375 0.84375q0 0.484375 0.421875 0.828125q0.515625 0.421875 2.515625 0.90625q2.0 0.46875 2.953125 0.984375q0.96875 0.5 1.515625 1.375q0.546875 0.875 0.546875 2.15625q0 1.171875 -0.65625 2.203125q-0.640625 1.015625 -1.828125 1.515625q-1.1875 0.484375 -2.96875 0.484375q-2.578125 0 -3.96875 -1.1875q-1.375 -1.1875 -1.640625 -3.46875zm13.131073 4.421875l0 -13.59375l10.09375 0l0 2.296875l-7.34375 0l0 3.015625l6.828125 0l0 2.28125l-6.828125 0l0 3.703125l7.609375 0l0 2.296875l-10.359375 0zm12.459198 0l0 -13.59375l5.78125 0q2.1875 0 3.171875 0.359375q0.984375 0.359375 1.578125 1.296875q0.59375 0.9375 0.59375 2.15625q0 1.53125 -0.90625 2.53125q-0.890625 0.984375 -2.6875 1.25q0.890625 0.515625 1.46875 1.140625q0.578125 0.625 1.5625 2.203125l1.671875 2.65625l-3.296875 0l-1.984375 -2.953125q-1.046875 -1.59375 -1.4375 -2.0q-0.390625 -0.421875 -0.828125 -0.5625q-0.4375 -0.15625 -1.390625 -0.15625l-0.546875 0l0 5.671875l-2.75 0zm2.75 -7.84375l2.03125 0q1.96875 0 2.453125 -0.171875q0.5 -0.171875 0.78125 -0.578125q0.28125 -0.40625 0.28125 -1.015625q0 -0.6875 -0.375 -1.109375q-0.359375 -0.421875 -1.03125 -0.53125q-0.328125 -0.046875 -2.0 -0.046875l-2.140625 0l0 3.453125zm14.191711 7.84375l-4.875 -13.59375l2.984375 0l3.4375 10.0625l3.328125 -10.0625l2.921875 0l-4.875 13.59375l-2.921875 0zm8.881073 0l0 -13.59375l2.75 0l0 13.59375l-2.75 0zm13.964539 -5.0l2.671875 0.84375q-0.609375 2.21875 -2.046875 3.3125q-1.421875 1.078125 -3.609375 1.078125q-2.703125 0 -4.453125 -1.84375q-1.734375 -1.859375 -1.734375 -5.078125q0 -3.390625 1.75 -5.265625q1.75 -1.875 4.609375 -1.875q2.5 0 4.046875 1.46875q0.9375 0.875 1.390625 2.5l-2.71875 0.65625q-0.234375 -1.0625 -1.0 -1.671875q-0.765625 -0.609375 -1.859375 -0.609375q-1.515625 0 -2.453125 1.09375q-0.9375 1.078125 -0.9375 3.5q0 2.578125 0.921875 3.6875q0.921875 1.09375 2.40625 1.09375q1.109375 0 1.890625 -0.6875q0.78125 -0.703125 1.125 -2.203125zm4.7698364 5.0l0 -13.59375l10.09375 0l0 2.296875l-7.34375 0l0 3.015625l6.828125 0l0 2.28125l-6.828125 0l0 3.703125l7.609375 0l0 2.296875l-10.359375 0z" fill-rule="nonzero"></path><path fill="#000000" fill-opacity="0.0" d="m169.16536 227.71916l0 24.18898" fill-rule="evenodd"></path><path stroke="#000000" stroke-width="1.0" stroke-linejoin="round" stroke-linecap="butt" d="m169.16536 227.71916l0 24.18898" fill-rule="evenodd"></path><path fill="#000000" fill-opacity="0.0" d="m603.30707 226.22047l0 18.992126" fill-rule="evenodd"></path><path stroke="#000000" stroke-width="1.0" stroke-linejoin="round" stroke-linecap="butt" d="m603.30707 226.22047l0 18.992126" fill-rule="evenodd"></path><path fill="#000000" fill-opacity="0.0" d="m122.56693 358.33334l328.37796 -161.70079" fill-rule="evenodd"></path><path stroke="#4a86e8" stroke-width="3.0" stroke-linejoin="round" stroke-linecap="butt" stroke-dasharray="3.0,9.0" d="m122.56693 358.33334l319.15433 -157.15889" fill-rule="evenodd"></path><path fill="#4a86e8" stroke="#4a86e8" stroke-width="3.0" stroke-linecap="butt" d="m441.72125 201.17447l-1.5362854 4.517105l6.8253784 -7.121567l-9.806183 1.0681763z" fill-rule="evenodd"></path><path fill="#d0e0e3" d="m44.302902 52.763775l0 0c-2.457199 -8.463959 5.610279 -16.842766 20.779106 -21.58098c15.168823 -4.7382183 34.778717 -5.0048637 50.508476 -0.6867943l0 0c5.5719604 -4.921297 15.770279 -8.319113 27.510147 -9.165674c11.739883 -0.84656143 23.642426 0.9575634 32.107346 4.866661l0 0c4.7465973 -4.4619637 14.06662 -7.459833 24.652832 -7.9298096c10.586227 -0.46997452 20.94043 1.6544571 27.388412 5.619438l0 0c8.575424 -4.7296715 22.219116 -6.721058 35.02739 -5.11248c12.808289 1.6085796 22.480682 6.5282116 24.831848 12.630142l0 0c10.506348 1.3432465 19.257904 4.7579575 23.99356 9.361881c4.7356567 4.60392 4.9908447 9.945423 0.6996765 14.644428l0 0c10.345673 6.3112755 12.765778 14.720974 6.3571777 22.090748c-6.4086 7.369774 -20.683075 12.5924 -37.49646 13.71888c-0.118499756 6.916794 -8.211609 13.263565 -21.15982 16.593979c-12.948257 3.3304214 -28.729736 3.1244354 -41.26158 -0.53855896c-5.337906 8.284058 -20.36232 14.379395 -38.582138 15.652588c-18.219818 1.2731934 -36.368774 -2.5039902 -46.605865 -9.6996765c-12.548531 3.5467758 -27.605728 4.568489 -41.77498 2.8346634c-14.169258 -1.7338257 -26.257027 -6.077141 -33.536556 -12.050186l0 0c-12.823025 0.70334625 -25.221115 -2.4106598 -31.041143 -7.7965393c-5.820032 -5.385872 -3.8230572 -11.897102 4.9998302 -16.302185l0 0c-11.438467 -3.1555862 -17.275063 -9.41732 -14.466232 -15.5199585c2.8088322 -6.1026306 13.6266 -10.6632805 26.812263 -11.303749z" fill-rule="evenodd"></path><path fill="#000000" fill-opacity="0.0" d="m31.7034 79.9137l0 0c5.397846 1.4891357 11.633625 2.1646423 17.870083 1.9358215m8.168419 22.163445c2.6819077 -0.14710236 5.310684 -0.45861053 7.8185387 -0.9264908m67.48924 10.141624c-1.8862762 -1.3258667 -3.465561 -2.7426758 -4.7109528 -4.22628m89.90222 -1.7268829l0 0c0.97317505 -1.5103073 1.603714 -3.0647354 1.8810883 -4.6373672m60.537964 -11.417473c0.12615967 -7.363991 -8.797272 -14.1065445 -22.937439 -17.331528m54.076416 -18.477322c-2.289978 2.5075798 -5.7858276 4.7320213 -10.2135315 6.498909m-14.47757 -30.505873l0 0c0.39019775 1.0126171 0.57077026 2.040453 0.5392456 3.0692616m-60.39746 -10.586618l0 0c-2.139145 1.1798172 -3.9015045 2.498249 -5.232239 3.91424m-46.809494 -1.6043835l0 0c-1.1399841 1.071619 -1.9912415 2.205576 -2.5341644 3.3757496m-57.084198 0.9233532l0 0c3.3284073 0.9137001 6.407631 2.0134373 9.170036 3.275053m-80.4567 18.99284l0 0c0.338665 1.1665535 0.8737755 2.3187218 1.6003189 3.4457283" fill-rule="evenodd"></path><path stroke="#4a86e8" stroke-width="1.0" stroke-linejoin="round" stroke-linecap="butt" d="m44.302902 52.763775l0 0c-2.457199 -8.463959 5.610279 -16.842766 20.779106 -21.58098c15.168823 -4.7382183 34.778717 -5.0048637 50.508476 -0.6867943l0 0c5.5719604 -4.921297 15.770279 -8.319113 27.510147 -9.165674c11.739883 -0.84656143 23.642426 0.9575634 32.107346 4.866661l0 0c4.7465973 -4.4619637 14.06662 -7.459833 24.652832 -7.9298096c10.586227 -0.46997452 20.94043 1.6544571 27.388412 5.619438l0 0c8.575424 -4.7296715 22.219116 -6.721058 35.02739 -5.11248c12.808289 1.6085796 22.480682 6.5282116 24.831848 12.630142l0 0c10.506348 1.3432465 19.257904 4.7579575 23.99356 9.361881c4.7356567 4.60392 4.9908447 9.945423 0.6996765 14.644428l0 0c10.345673 6.3112755 12.765778 14.720974 6.3571777 22.090748c-6.4086 7.369774 -20.683075 12.5924 -37.49646 13.71888c-0.118499756 6.916794 -8.211609 13.263565 -21.15982 16.593979c-12.948257 3.3304214 -28.729736 3.1244354 -41.26158 -0.53855896c-5.337906 8.284058 -20.36232 14.379395 -38.582138 15.652588c-18.219818 1.2731934 -36.368774 -2.5039902 -46.605865 -9.6996765c-12.548531 3.5467758 -27.605728 4.568489 -41.77498 2.8346634c-14.169258 -1.7338257 -26.257027 -6.077141 -33.536556 -12.050186l0 0c-12.823025 0.70334625 -25.221115 -2.4106598 -31.041143 -7.7965393c-5.820032 -5.385872 -3.8230572 -11.897102 4.9998302 -16.302185l0 0c-11.438467 -3.1555862 -17.275063 -9.41732 -14.466232 -15.5199585c2.8088322 -6.1026306 13.6266 -10.6632805 26.812263 -11.303749z" fill-rule="evenodd"></path><path stroke="#4a86e8" stroke-width="1.0" stroke-linejoin="round" stroke-linecap="butt" d="m31.7034 79.9137l0 0c5.397846 1.4891357 11.633625 2.1646423 17.870083 1.9358215m8.168419 22.163445c2.6819077 -0.14710236 5.310684 -0.45861053 7.8185387 -0.9264908m67.48924 10.141624c-1.8862762 -1.3258667 -3.465561 -2.7426758 -4.7109528 -4.22628m89.90222 -1.7268829l0 0c0.97317505 -1.5103073 1.603714 -3.0647354 1.8810883 -4.6373672m60.537964 -11.417473c0.12615967 -7.363991 -8.797272 -14.1065445 -22.937439 -17.331528m54.076416 -18.477322c-2.289978 2.5075798 -5.7858276 4.7320213 -10.2135315 6.498909m-14.47757 -30.505873l0 0c0.39019775 1.0126171 0.57077026 2.040453 0.5392456 3.0692616m-60.39746 -10.586618l0 0c-2.139145 1.1798172 -3.9015045 2.498249 -5.232239 3.91424m-46.809494 -1.6043835l0 0c-1.1399841 1.071619 -1.9912415 2.205576 -2.5341644 3.3757496m-57.084198 0.9233532l0 0c3.3284073 0.9137001 6.407631 2.0134373 9.170036 3.275053m-80.4567 18.99284l0 0c0.338665 1.1665535 0.8737755 2.3187218 1.6003189 3.4457283" fill-rule="evenodd"></path><path fill="#000000" fill-opacity="0.0" d="m169.1692 122.67641l0 45.88977" fill-rule="evenodd"></path><path stroke="#000000" stroke-width="1.0" stroke-linejoin="round" stroke-linecap="butt" stroke-dasharray="4.0,3.0,1.0,3.0" d="m169.1692 122.67641l0 45.88977" fill-rule="evenodd"></path></g></svg>

